<svg width="565" height="362" viewBox="0 0 565 362" fill="none" xmlns="http://www.w3.org/2000/svg">
<g filter="url(#filter0_d_0_1)">
<rect x="16" width="533" height="90" rx="20" fill="#F6FAFD"/>
</g>
<g clip-path="url(#clip0_0_1)">
<path d="M83.025 53.8899L85.9561 35.1742C86.2609 33.275 84.9686 31.488 83.0693 31.1823L43.5175 24.8341C41.6183 24.5293 39.8313 25.8216 39.5266 27.7208L38.1211 36.4734V53.781L83.025 53.8899Z" fill="#146AA8"/>
<path d="M83.0669 31.1822L71.8333 29.3796C64.2885 40.9241 52.0918 48.9199 42.7383 53.7922L83.0225 53.8897L85.9536 35.1741C86.2584 33.2747 84.9661 31.4878 83.0669 31.1822Z" fill="#126099"/>
<path d="M39.4833 35.6025H79.541C81.4647 35.6025 83.0243 37.1622 83.0243 39.0858V61.7272C83.0243 63.6508 81.4647 65.2105 79.541 65.2105H39.4833C37.5597 65.2104 36 63.6508 36 61.7272V39.0858C36 37.1622 37.5597 35.6025 39.4833 35.6025Z" fill="#4398D1"/>
<path d="M79.5413 35.6025H78.8447C70.6241 50.1967 55.2638 60.2076 45.8867 65.2104H79.5413C81.465 65.2104 83.0246 63.6507 83.0246 61.7271V39.0858C83.0246 37.1622 81.465 35.6025 79.5413 35.6025Z" fill="#3E8CC7"/>
<path d="M49.0637 39.9568H40.3555V46.9234H49.0637V39.9568Z" fill="#FDB62F"/>
<path d="M42.968 42.5693H40.3555V44.3109H42.968V42.5693Z" fill="#FD7B2F"/>
<path d="M49.0656 42.5693H46.4531V44.3109H49.0656V42.5693Z" fill="#FD7B2F"/>
<path d="M74.315 60.8564C76.7197 60.8564 78.6691 58.907 78.6691 56.5023C78.6691 54.0976 76.7197 52.1482 74.315 52.1482C71.9103 52.1482 69.9609 54.0976 69.9609 56.5023C69.9609 58.907 71.9103 60.8564 74.315 60.8564Z" fill="#FDB62F"/>
<path d="M69.0924 60.8564C71.4971 60.8564 73.4465 58.907 73.4465 56.5023C73.4465 54.0976 71.4971 52.1482 69.0924 52.1482C66.6877 52.1482 64.7383 54.0976 64.7383 56.5023C64.7383 58.907 66.6877 60.8564 69.0924 60.8564Z" fill="#DE4C3C"/>
<path d="M44.7093 53.019H39.4844V54.7606H44.7093V53.019Z" fill="#87CED9"/>
<path d="M53.4163 53.019H48.1914V54.7606H53.4163V53.019Z" fill="#87CED9"/>
<path d="M62.1272 53.019H56.9023V54.7606H62.1272V53.019Z" fill="#87CED9"/>
<path d="M62.1257 58.2441H39.4844V59.9857H62.1257V58.2441Z" fill="#87CED9"/>
<path d="M68.2221 39.9568H66.4805V43.4401H68.2221V39.9568Z" fill="#87CED9"/>
<path d="M71.7064 39.9568H69.9648V43.4401H71.7064V39.9568Z" fill="#87CED9"/>
<path d="M75.1869 39.9568H73.4453V43.4401H75.1869V39.9568Z" fill="#87CED9"/>
<path d="M78.6713 39.9568H76.9297V43.4401H78.6713V39.9568Z" fill="#87CED9"/>
</g>
<path d="M121.95 51.084C120.979 51.084 120.097 50.8693 119.304 50.44C118.52 50.0013 117.904 49.404 117.456 48.648C117.017 47.892 116.798 47.0427 116.798 46.1C116.798 45.1573 117.017 44.308 117.456 43.552C117.904 42.796 118.52 42.2033 119.304 41.774C120.097 41.3353 120.979 41.116 121.95 41.116C122.921 41.116 123.793 41.3307 124.568 41.76C125.352 42.1893 125.968 42.7867 126.416 43.552C126.864 44.308 127.088 45.1573 127.088 46.1C127.088 47.0427 126.864 47.8967 126.416 48.662C125.968 49.418 125.352 50.0107 124.568 50.44C123.793 50.8693 122.921 51.084 121.95 51.084ZM121.95 50.16C122.725 50.16 123.425 49.9873 124.05 49.642C124.675 49.2873 125.165 48.802 125.52 48.186C125.875 47.5607 126.052 46.8653 126.052 46.1C126.052 45.3347 125.875 44.644 125.52 44.028C125.165 43.4027 124.675 42.9173 124.05 42.572C123.425 42.2173 122.725 42.04 121.95 42.04C121.175 42.04 120.471 42.2173 119.836 42.572C119.211 42.9173 118.716 43.4027 118.352 44.028C117.997 44.644 117.82 45.3347 117.82 46.1C117.82 46.8653 117.997 47.5607 118.352 48.186C118.716 48.802 119.211 49.2873 119.836 49.642C120.471 49.9873 121.175 50.16 121.95 50.16ZM135.93 43.636V51H134.936V44.518H130.316V51H129.322V43.636H135.93ZM144.776 43.636V51H143.782V44.518H140.254L140.156 46.338C140.081 47.8687 139.904 49.0447 139.624 49.866C139.344 50.6873 138.844 51.098 138.126 51.098C137.93 51.098 137.692 51.0607 137.412 50.986L137.482 50.132C137.65 50.1693 137.766 50.188 137.832 50.188C138.214 50.188 138.504 50.0107 138.7 49.656C138.896 49.3013 139.026 48.8627 139.092 48.34C139.157 47.8173 139.213 47.1267 139.26 46.268L139.386 43.636H144.776ZM150.136 43.58C151.097 43.58 151.834 43.8227 152.348 44.308C152.861 44.784 153.118 45.4933 153.118 46.436V51H152.166V49.852C151.942 50.2347 151.61 50.5333 151.172 50.748C150.742 50.9627 150.229 51.07 149.632 51.07C148.81 51.07 148.157 50.874 147.672 50.482C147.186 50.09 146.944 49.572 146.944 48.928C146.944 48.3027 147.168 47.7987 147.616 47.416C148.073 47.0333 148.796 46.842 149.785 46.842H152.124V46.394C152.124 45.7593 151.946 45.2787 151.592 44.952C151.237 44.616 150.719 44.448 150.038 44.448C149.571 44.448 149.123 44.5273 148.694 44.686C148.264 44.8353 147.896 45.0453 147.588 45.316L147.14 44.574C147.513 44.2567 147.961 44.014 148.484 43.846C149.006 43.6687 149.557 43.58 150.136 43.58ZM149.785 50.286C150.346 50.286 150.826 50.16 151.228 49.908C151.629 49.6467 151.928 49.2733 152.124 48.788V47.584H149.814C148.554 47.584 147.924 48.0227 147.924 48.9C147.924 49.3293 148.087 49.67 148.414 49.922C148.74 50.1647 149.198 50.286 149.785 50.286ZM161.322 43.636V51H160.328V47.934C159.478 48.3073 158.643 48.494 157.822 48.494C156.935 48.494 156.244 48.2933 155.75 47.892C155.255 47.4813 155.008 46.87 155.008 46.058V43.636H156.002V46.002C156.002 46.5527 156.179 46.9727 156.534 47.262C156.888 47.542 157.378 47.682 158.004 47.682C158.694 47.682 159.469 47.5 160.328 47.136V43.636H161.322ZM164.144 43.636H165.138V49.488L170.052 43.636H170.934V51H169.94V45.148L165.04 51H164.144V43.636ZM178.473 47.192C179.472 47.4253 179.971 48.0273 179.971 48.998C179.971 49.642 179.733 50.1367 179.257 50.482C178.781 50.8273 178.072 51 177.129 51H173.783V43.636H177.031C177.871 43.636 178.529 43.7993 179.005 44.126C179.481 44.4527 179.719 44.9193 179.719 45.526C179.719 45.9273 179.607 46.2727 179.383 46.562C179.168 46.842 178.865 47.052 178.473 47.192ZM174.749 46.912H176.961C177.53 46.912 177.964 46.8047 178.263 46.59C178.571 46.3753 178.725 46.0627 178.725 45.652C178.725 45.2413 178.571 44.9333 178.263 44.728C177.964 44.5227 177.53 44.42 176.961 44.42H174.749V46.912ZM177.087 50.216C177.722 50.216 178.198 50.1133 178.515 49.908C178.832 49.7027 178.991 49.3807 178.991 48.942C178.991 48.5033 178.846 48.1813 178.557 47.976C178.268 47.7613 177.81 47.654 177.185 47.654H174.749V50.216H177.087ZM184.835 43.58C185.796 43.58 186.533 43.8227 187.047 44.308C187.56 44.784 187.817 45.4933 187.817 46.436V51H186.865V49.852C186.641 50.2347 186.309 50.5333 185.871 50.748C185.441 50.9627 184.928 51.07 184.331 51.07C183.509 51.07 182.856 50.874 182.371 50.482C181.885 50.09 181.643 49.572 181.643 48.928C181.643 48.3027 181.867 47.7987 182.315 47.416C182.772 47.0333 183.495 46.842 184.485 46.842H186.823V46.394C186.823 45.7593 186.645 45.2787 186.291 44.952C185.936 44.616 185.418 44.448 184.737 44.448C184.27 44.448 183.822 44.5273 183.393 44.686C182.963 44.8353 182.595 45.0453 182.287 45.316L181.839 44.574C182.212 44.2567 182.66 44.014 183.183 43.846C183.705 43.6687 184.256 43.58 184.835 43.58ZM184.485 50.286C185.045 50.286 185.525 50.16 185.927 49.908C186.328 49.6467 186.627 49.2733 186.823 48.788V47.584H184.513C183.253 47.584 182.623 48.0227 182.623 48.9C182.623 49.3293 182.786 49.67 183.113 49.922C183.439 50.1647 183.897 50.286 184.485 50.286ZM190.463 43.636H191.457V49.488L196.371 43.636H197.253V51H196.259V45.148L191.359 51H190.463V43.636ZM193.809 42.572C193.174 42.572 192.67 42.4133 192.297 42.096C191.923 41.7787 191.732 41.3307 191.723 40.752H192.437C192.446 41.116 192.577 41.41 192.829 41.634C193.081 41.8487 193.407 41.956 193.809 41.956C194.21 41.956 194.537 41.8487 194.789 41.634C195.05 41.41 195.185 41.116 195.195 40.752H195.909C195.899 41.3307 195.703 41.7787 195.321 42.096C194.947 42.4133 194.443 42.572 193.809 42.572ZM205.282 44.518H202.496V51H201.502V44.518H198.716V43.636H205.282V44.518ZM212.817 47.626H206.657C206.713 48.3913 207.007 49.012 207.539 49.488C208.071 49.9547 208.743 50.188 209.555 50.188C210.012 50.188 210.432 50.1087 210.815 49.95C211.198 49.782 211.529 49.5393 211.809 49.222L212.369 49.866C212.042 50.258 211.632 50.5567 211.137 50.762C210.652 50.9673 210.115 51.07 209.527 51.07C208.771 51.07 208.099 50.9113 207.511 50.594C206.932 50.2673 206.48 49.8193 206.153 49.25C205.826 48.6807 205.663 48.0367 205.663 47.318C205.663 46.5993 205.817 45.9553 206.125 45.386C206.442 44.8167 206.872 44.3733 207.413 44.056C207.964 43.7387 208.58 43.58 209.261 43.58C209.942 43.58 210.554 43.7387 211.095 44.056C211.636 44.3733 212.061 44.8167 212.369 45.386C212.677 45.946 212.831 46.59 212.831 47.318L212.817 47.626ZM209.261 44.434C208.552 44.434 207.954 44.6627 207.469 45.12C206.993 45.568 206.722 46.156 206.657 46.884H211.879C211.814 46.156 211.538 45.568 211.053 45.12C210.577 44.6627 209.98 44.434 209.261 44.434ZM221.775 51.07C221.047 51.07 220.394 50.9113 219.815 50.594C219.246 50.2767 218.798 49.8333 218.471 49.264C218.145 48.6853 217.981 48.0367 217.981 47.318C217.981 46.5993 218.145 45.9553 218.471 45.386C218.798 44.8167 219.246 44.3733 219.815 44.056C220.394 43.7387 221.047 43.58 221.775 43.58C222.41 43.58 222.975 43.706 223.469 43.958C223.973 44.2007 224.37 44.56 224.659 45.036L223.917 45.54C223.675 45.176 223.367 44.9053 222.993 44.728C222.62 44.5413 222.214 44.448 221.775 44.448C221.243 44.448 220.763 44.5693 220.333 44.812C219.913 45.0453 219.582 45.3813 219.339 45.82C219.106 46.2587 218.989 46.758 218.989 47.318C218.989 47.8873 219.106 48.3913 219.339 48.83C219.582 49.2593 219.913 49.5953 220.333 49.838C220.763 50.0713 221.243 50.188 221.775 50.188C222.214 50.188 222.62 50.0993 222.993 49.922C223.367 49.7447 223.675 49.474 223.917 49.11L224.659 49.614C224.37 50.09 223.973 50.454 223.469 50.706C222.965 50.9487 222.401 51.07 221.775 51.07ZM234.042 43.58C234.733 43.58 235.358 43.7387 235.918 44.056C236.478 44.364 236.917 44.8027 237.234 45.372C237.551 45.9413 237.71 46.59 237.71 47.318C237.71 48.0553 237.551 48.7087 237.234 49.278C236.917 49.8473 236.478 50.2907 235.918 50.608C235.367 50.916 234.742 51.07 234.042 51.07C233.445 51.07 232.903 50.9487 232.418 50.706C231.942 50.454 231.55 50.09 231.242 49.614V53.716H230.248V43.636H231.2V45.092C231.499 44.6067 231.891 44.2333 232.376 43.972C232.871 43.7107 233.426 43.58 234.042 43.58ZM233.972 50.188C234.485 50.188 234.952 50.0713 235.372 49.838C235.792 49.5953 236.119 49.2547 236.352 48.816C236.595 48.3773 236.716 47.878 236.716 47.318C236.716 46.758 236.595 46.2633 236.352 45.834C236.119 45.3953 235.792 45.0547 235.372 44.812C234.952 44.5693 234.485 44.448 233.972 44.448C233.449 44.448 232.978 44.5693 232.558 44.812C232.147 45.0547 231.821 45.3953 231.578 45.834C231.345 46.2633 231.228 46.758 231.228 47.318C231.228 47.878 231.345 48.3773 231.578 48.816C231.821 49.2547 232.147 49.5953 232.558 49.838C232.978 50.0713 233.449 50.188 233.972 50.188ZM242.702 39.212H243.612L238.992 52.4H238.082L242.702 39.212ZM246.658 51.07C245.93 51.07 245.277 50.9113 244.698 50.594C244.129 50.2767 243.681 49.8333 243.354 49.264C243.027 48.6853 242.864 48.0367 242.864 47.318C242.864 46.5993 243.027 45.9553 243.354 45.386C243.681 44.8167 244.129 44.3733 244.698 44.056C245.277 43.7387 245.93 43.58 246.658 43.58C247.293 43.58 247.857 43.706 248.352 43.958C248.856 44.2007 249.253 44.56 249.542 45.036L248.8 45.54C248.557 45.176 248.249 44.9053 247.876 44.728C247.503 44.5413 247.097 44.448 246.658 44.448C246.126 44.448 245.645 44.5693 245.216 44.812C244.796 45.0453 244.465 45.3813 244.222 45.82C243.989 46.2587 243.872 46.758 243.872 47.318C243.872 47.8873 243.989 48.3913 244.222 48.83C244.465 49.2593 244.796 49.5953 245.216 49.838C245.645 50.0713 246.126 50.188 246.658 50.188C247.097 50.188 247.503 50.0993 247.876 49.922C248.249 49.7447 248.557 49.474 248.8 49.11L249.542 49.614C249.253 50.09 248.856 50.454 248.352 50.706C247.848 50.9487 247.283 51.07 246.658 51.07ZM255.131 43.636H256.125V49.488L261.039 43.636H261.921V51H260.927V45.148L256.027 51H255.131V43.636ZM270.789 43.636V51H269.795V44.518H266.267L266.169 46.338C266.095 47.8687 265.917 49.0447 265.637 49.866C265.357 50.6873 264.858 51.098 264.139 51.098C263.943 51.098 263.705 51.0607 263.425 50.986L263.495 50.132C263.663 50.1693 263.78 50.188 263.845 50.188C264.228 50.188 264.517 50.0107 264.713 49.656C264.909 49.3013 265.04 48.8627 265.105 48.34C265.171 47.8173 265.227 47.1267 265.273 46.268L265.399 43.636H270.789ZM273.615 43.636H274.609V49.488L279.523 43.636H280.405V51H279.411V45.148L274.511 51H273.615V43.636ZM289.592 47.724H287.912V51H286.918V43.636H287.912V46.87H289.606L292.196 43.636H293.274L290.376 47.206L293.484 51H292.308L289.592 47.724ZM297.45 43.58C298.411 43.58 299.149 43.8227 299.662 44.308C300.175 44.784 300.432 45.4933 300.432 46.436V51H299.48V49.852C299.256 50.2347 298.925 50.5333 298.486 50.748C298.057 50.9627 297.543 51.07 296.946 51.07C296.125 51.07 295.471 50.874 294.986 50.482C294.501 50.09 294.258 49.572 294.258 48.928C294.258 48.3027 294.482 47.7987 294.93 47.416C295.387 47.0333 296.111 46.842 297.1 46.842H299.438V46.394C299.438 45.7593 299.261 45.2787 298.906 44.952C298.551 44.616 298.033 44.448 297.352 44.448C296.885 44.448 296.437 44.5273 296.008 44.686C295.579 44.8353 295.21 45.0453 294.902 45.316L294.454 44.574C294.827 44.2567 295.275 44.014 295.798 43.846C296.321 43.6687 296.871 43.58 297.45 43.58ZM297.1 50.286C297.66 50.286 298.141 50.16 298.542 49.908C298.943 49.6467 299.242 49.2733 299.438 48.788V47.584H297.128C295.868 47.584 295.238 48.0227 295.238 48.9C295.238 49.3293 295.401 49.67 295.728 49.922C296.055 50.1647 296.512 50.286 297.1 50.286ZM306.872 43.58C307.563 43.58 308.188 43.7387 308.748 44.056C309.308 44.364 309.747 44.8027 310.064 45.372C310.381 45.9413 310.54 46.59 310.54 47.318C310.54 48.0553 310.381 48.7087 310.064 49.278C309.747 49.8473 309.308 50.2907 308.748 50.608C308.197 50.916 307.572 51.07 306.872 51.07C306.275 51.07 305.733 50.9487 305.248 50.706C304.772 50.454 304.38 50.09 304.072 49.614V53.716H303.078V43.636H304.03V45.092C304.329 44.6067 304.721 44.2333 305.206 43.972C305.701 43.7107 306.256 43.58 306.872 43.58ZM306.802 50.188C307.315 50.188 307.782 50.0713 308.202 49.838C308.622 49.5953 308.949 49.2547 309.182 48.816C309.425 48.3773 309.546 47.878 309.546 47.318C309.546 46.758 309.425 46.2633 309.182 45.834C308.949 45.3953 308.622 45.0547 308.202 44.812C307.782 44.5693 307.315 44.448 306.802 44.448C306.279 44.448 305.808 44.5693 305.388 44.812C304.977 45.0547 304.651 45.3953 304.408 45.834C304.175 46.2633 304.058 46.758 304.058 47.318C304.058 47.878 304.175 48.3773 304.408 48.816C304.651 49.2547 304.977 49.5953 305.388 49.838C305.808 50.0713 306.279 50.188 306.802 50.188ZM317.582 44.518H314.796V51H313.802V44.518H311.016V43.636H317.582V44.518ZM322.113 46.24C323.037 46.2493 323.742 46.4547 324.227 46.856C324.713 47.2573 324.955 47.836 324.955 48.592C324.955 49.376 324.694 49.978 324.171 50.398C323.649 50.818 322.902 51.0233 321.931 51.014L319.019 51V43.636H320.013V46.212L322.113 46.24ZM326.187 43.636H327.181V51H326.187V43.636ZM321.875 50.258C322.557 50.2673 323.07 50.132 323.415 49.852C323.77 49.5627 323.947 49.1427 323.947 48.592C323.947 48.0507 323.775 47.6493 323.429 47.388C323.084 47.1267 322.566 46.9913 321.875 46.982L320.013 46.954V50.23L321.875 50.258ZM336.35 47.724H334.67V51H333.676V43.636H334.67V46.87H336.364L338.954 43.636H340.032L337.134 47.206L340.242 51H339.066L336.35 47.724ZM344.589 51.07C343.879 51.07 343.24 50.9113 342.671 50.594C342.101 50.2673 341.653 49.8193 341.327 49.25C341 48.6807 340.837 48.0367 340.837 47.318C340.837 46.5993 341 45.9553 341.327 45.386C341.653 44.8167 342.101 44.3733 342.671 44.056C343.24 43.7387 343.879 43.58 344.589 43.58C345.298 43.58 345.937 43.7387 346.507 44.056C347.076 44.3733 347.519 44.8167 347.837 45.386C348.163 45.9553 348.327 46.5993 348.327 47.318C348.327 48.0367 348.163 48.6807 347.837 49.25C347.519 49.8193 347.076 50.2673 346.507 50.594C345.937 50.9113 345.298 51.07 344.589 51.07ZM344.589 50.188C345.111 50.188 345.578 50.0713 345.989 49.838C346.409 49.5953 346.735 49.2547 346.969 48.816C347.202 48.3773 347.319 47.878 347.319 47.318C347.319 46.758 347.202 46.2587 346.969 45.82C346.735 45.3813 346.409 45.0453 345.989 44.812C345.578 44.5693 345.111 44.448 344.589 44.448C344.066 44.448 343.595 44.5693 343.175 44.812C342.764 45.0453 342.437 45.3813 342.195 45.82C341.961 46.2587 341.845 46.758 341.845 47.318C341.845 47.878 341.961 48.3773 342.195 48.816C342.437 49.2547 342.764 49.5953 343.175 49.838C343.595 50.0713 344.066 50.188 344.589 50.188ZM358.683 43.636V51H357.773V45.176L354.791 50.104H354.343L351.361 45.162V51H350.451V43.636H351.459L354.581 48.942L357.759 43.636H358.683ZM368.12 43.636V51H367.126V44.518H362.506V51H361.512V43.636H368.12ZM373.479 43.58C374.441 43.58 375.178 43.8227 375.691 44.308C376.205 44.784 376.461 45.4933 376.461 46.436V51H375.509V49.852C375.285 50.2347 374.954 50.5333 374.515 50.748C374.086 50.9627 373.573 51.07 372.975 51.07C372.154 51.07 371.501 50.874 371.015 50.482C370.53 50.09 370.287 49.572 370.287 48.928C370.287 48.3027 370.511 47.7987 370.959 47.416C371.417 47.0333 372.14 46.842 373.129 46.842H375.467V46.394C375.467 45.7593 375.29 45.2787 374.935 44.952C374.581 44.616 374.063 44.448 373.381 44.448C372.915 44.448 372.467 44.5273 372.037 44.686C371.608 44.8353 371.239 45.0453 370.931 45.316L370.483 44.574C370.857 44.2567 371.305 44.014 371.827 43.846C372.35 43.6687 372.901 43.58 373.479 43.58ZM373.129 50.286C373.689 50.286 374.17 50.16 374.571 49.908C374.973 49.6467 375.271 49.2733 375.467 48.788V47.584H373.157C371.897 47.584 371.267 48.0227 371.267 48.9C371.267 49.3293 371.431 49.67 371.757 49.922C372.084 50.1647 372.541 50.286 373.129 50.286ZM379.107 43.636H380.101V46.898H384.735V43.636H385.729V51H384.735V47.752H380.101V51H379.107V43.636ZM388.555 43.636H389.549V49.488L394.463 43.636H395.345V51H394.351V45.148L389.451 51H388.555V43.636ZM398.193 43.636H399.187V49.488L404.101 43.636H404.983V51H403.989V45.148L399.089 51H398.193V43.636Z" fill="#222222"/>
<g filter="url(#filter1_d_0_1)">
<rect x="16" y="120" width="533" height="90" rx="20" fill="#F6FAFD"/>
</g>
<g clip-path="url(#clip1_0_1)">
<path d="M83.7272 174.546H38.2728C37.0228 174.546 36 173.523 36 172.273V147.273C36 146.023 37.0228 145 38.2728 145H83.7273C84.9773 145 86.0001 146.023 86.0001 147.273V172.273C86 173.523 84.9772 174.546 83.7272 174.546Z" fill="#0E9347"/>
<path d="M78.0447 165.455C75.4311 165.455 73.0447 166.705 71.6811 168.75C70.5447 168.182 69.2947 167.727 67.8175 167.727C63.8402 167.727 60.5447 170.682 59.9766 174.545H83.7266C84.8629 174.545 85.772 173.75 85.9993 172.614C85.5447 168.636 82.1357 165.455 78.0447 165.455Z" fill="#0D8944"/>
<path d="M79.1825 172.273H42.8188C42.8188 169.773 40.7734 167.727 38.2734 167.727V151.818C40.7734 151.818 42.8188 149.773 42.8188 147.273H79.1825C79.1825 149.773 81.2279 151.818 83.7279 151.818V167.727C81.2279 167.727 79.1825 169.773 79.1825 172.273Z" fill="#3BB54A"/>
<path d="M78.0426 165.455C75.4289 165.455 73.0426 166.705 71.6789 168.75C70.5426 168.182 69.2926 167.727 67.8153 167.727C64.6335 167.727 61.9062 169.546 60.6562 172.273H79.179C79.179 169.773 81.1108 167.841 83.6108 167.727C82.1335 166.364 80.2018 165.455 78.0426 165.455Z" fill="#0E9347"/>
<path d="M60.9972 170C66.0179 170 70.0881 165.421 70.0881 159.773C70.0881 154.124 66.0179 149.545 60.9972 149.545C55.9764 149.545 51.9062 154.124 51.9062 159.773C51.9062 165.421 55.9764 170 60.9972 170Z" fill="#0E9347"/>
<path d="M47.3626 162.045C48.6178 162.045 49.6354 161.028 49.6354 159.773C49.6354 158.517 48.6178 157.5 47.3626 157.5C46.1074 157.5 45.0898 158.517 45.0898 159.773C45.0898 161.028 46.1074 162.045 47.3626 162.045Z" fill="#0E9347"/>
<path d="M74.636 162.045C75.8912 162.045 76.9088 161.028 76.9088 159.773C76.9088 158.517 75.8912 157.5 74.636 157.5C73.3808 157.5 72.3633 158.517 72.3633 159.773C72.3633 161.028 73.3808 162.045 74.636 162.045Z" fill="#0E9347"/>
<path d="M62.1349 158.636H59.8621C59.1803 158.636 58.7258 158.182 58.7258 157.5C58.7258 156.818 59.1804 156.364 59.8621 156.364H63.2712C63.953 156.364 64.4075 155.909 64.4075 155.227C64.4075 154.546 63.9529 154.091 63.2712 154.091H62.1349C62.1349 153.409 61.6803 152.955 60.9985 152.955C60.3167 152.955 59.8622 153.409 59.8622 154.091C57.9304 154.091 56.4531 155.568 56.4531 157.5C56.4531 159.432 57.9304 160.909 59.8622 160.909H62.135C62.8168 160.909 63.2713 161.364 63.2713 162.046C63.2713 162.727 62.8167 163.182 62.135 163.182H58.7259C58.044 163.182 57.5896 163.637 57.5896 164.318C57.5896 165 58.0441 165.455 58.7259 165.455H59.8622C59.8622 166.136 60.3168 166.591 60.9985 166.591C61.6804 166.591 62.1349 166.136 62.1349 165.455C64.0667 165.455 65.5439 163.977 65.5439 162.046C65.5439 160.114 64.0667 158.636 62.1349 158.636Z" fill="#89C763"/>
<path d="M65.5444 183.636C69.9376 183.636 73.499 180.075 73.499 175.682C73.499 171.289 69.9376 167.727 65.5444 167.727C61.1512 167.727 57.5898 171.289 57.5898 175.682C57.5898 180.075 61.1512 183.636 65.5444 183.636Z" fill="#FFCA5D"/>
<path d="M75.771 181.364C80.1642 181.364 83.7256 177.802 83.7256 173.409C83.7256 169.016 80.1642 165.455 75.771 165.455C71.3778 165.455 67.8164 169.016 67.8164 173.409C67.8164 177.802 71.3778 181.364 75.771 181.364Z" fill="#F6B545"/>
<path d="M75.771 165.455C71.3392 165.455 67.8164 168.977 67.8164 173.409C67.8164 177.841 71.3392 181.364 75.771 181.364C80.2028 181.364 83.7256 177.841 83.7256 173.409C83.7256 168.977 80.2028 165.455 75.771 165.455ZM75.771 179.091C72.5892 179.091 70.0892 176.591 70.0892 173.409C70.0892 170.227 72.5892 167.727 75.771 167.727C78.9528 167.727 81.4528 170.227 81.4528 173.409C81.4528 176.591 78.9528 179.091 75.771 179.091Z" fill="#FFCB5B"/>
<path d="M75.7734 181.25C80.2053 181.364 83.728 177.727 83.728 173.409H83.6144C83.0462 173.409 82.5916 173.864 82.478 174.432C82.2508 176.023 81.4553 177.5 80.3189 178.523C79.4099 179.432 78.1599 180 76.7962 180.227C76.2279 180.227 75.7734 180.682 75.7734 181.25Z" fill="#F6B545"/>
<path d="M75.771 165.568C71.3392 165.455 67.8164 169.091 67.8164 173.409H67.9301C68.4982 173.409 68.9528 172.955 69.0664 172.386C69.2937 170.796 70.0892 169.318 71.2255 168.296C72.1346 167.386 73.3846 166.818 74.7482 166.591C75.3164 166.591 75.771 166.136 75.771 165.568Z" fill="#FFE27A"/>
<path d="M70.8853 174.205C70.8853 171.023 73.3853 168.523 76.5671 168.523C77.9308 168.523 79.1808 168.977 80.2034 169.886C79.0671 168.523 77.5898 167.727 75.7717 167.727C72.5898 167.727 70.0898 170.227 70.0898 173.409C70.0898 175.227 70.8853 176.705 72.1353 177.727C71.3398 176.818 70.8853 175.568 70.8853 174.205Z" fill="#F19920"/>
<path d="M79.1832 176.932C79.0696 176.932 78.956 176.932 78.8423 176.818C78.6151 176.591 78.6151 176.25 78.8423 176.023C79.5241 175.341 79.8651 174.318 79.8651 173.409C79.8651 173.068 80.0923 172.841 80.4332 172.841C80.7742 172.841 81.0014 173.068 81.0014 173.409C81.0014 174.659 80.5468 175.909 79.7514 176.818C79.5241 176.932 79.2968 176.932 79.1832 176.932Z" fill="#FFCB5B"/>
<path d="M75.773 176.818C75.0912 176.818 74.6367 176.364 74.6367 175.682V171.137C74.6367 170.455 75.0913 170 75.773 170C76.4548 170 76.9094 170.455 76.9094 171.137V175.682C76.9094 176.364 76.4549 176.818 75.773 176.818Z" fill="#F19920"/>
<path d="M79.9791 180.114C79.1837 177.273 77.1382 175 74.5245 173.977C74.0699 171.364 72.3654 169.091 70.2063 167.727C68.8427 169.205 67.9336 171.136 67.9336 173.295C67.9336 177.727 71.4563 181.25 75.8882 181.25C77.3655 181.364 78.7291 180.909 79.9791 180.114Z" fill="#F19920"/>
<path d="M72.1354 177.727C71.3399 176.704 70.7717 175.454 70.7717 174.091C70.7717 172.5 71.4535 171.023 72.5898 170C72.3626 169.659 72.1353 169.432 71.908 169.205C70.7717 170.227 70.0898 171.705 70.0898 173.409C70.0899 175.227 70.8854 176.704 72.1354 177.727Z" fill="#E78825"/>
<path d="M74.6367 174.091V175.682C74.6367 176.364 75.0913 176.818 75.773 176.818C76.4548 176.818 76.9094 176.363 76.9094 175.682V175.454C76.2276 174.886 75.4322 174.432 74.6367 174.091Z" fill="#E78825"/>
<path d="M79.9755 180.113C79.7482 179.318 79.5209 178.636 79.0664 177.954C78.1573 178.636 77.021 179.091 75.771 179.091C72.5892 179.091 70.0892 176.591 70.0892 173.409C70.0892 171.704 70.771 170.227 71.9073 169.204C71.3392 168.636 70.771 168.181 70.0892 167.841C68.7255 169.318 67.8164 171.25 67.8164 173.409C67.8164 177.841 71.3392 181.363 75.771 181.363C77.3619 181.363 78.7255 180.909 79.9755 180.113Z" fill="#F6B545"/>
<path d="M79.6371 179.091C78.8417 179.659 77.8189 180 76.7962 180.227C76.228 180.341 75.7734 180.796 75.7734 181.364C77.3644 181.364 78.728 180.909 79.978 180.114C79.8645 179.773 79.7508 179.432 79.6371 179.091Z" fill="#F19920"/>
<path d="M70.0892 167.841C68.7255 169.318 67.8164 171.25 67.8164 173.409H67.9301C68.4982 173.409 68.9528 172.954 69.0664 172.386C69.2937 170.795 70.0892 169.432 71.1118 168.409C70.771 168.295 70.4301 168.068 70.0892 167.841Z" fill="#FFCB5B"/>
<path d="M65.5444 183.636C69.9376 183.636 73.499 180.075 73.499 175.682C73.499 171.289 69.9376 167.727 65.5444 167.727C61.1512 167.727 57.5898 171.289 57.5898 175.682C57.5898 180.075 61.1512 183.636 65.5444 183.636Z" fill="#F6B545"/>
<path d="M64.4102 181.364C64.4102 182.159 64.5238 182.841 64.7511 183.637C64.9783 183.637 65.3192 183.637 65.5465 183.637C69.9783 183.637 73.5011 180.114 73.5011 175.682C73.5011 174.887 73.3874 174.205 73.1602 173.409C72.9329 173.409 72.592 173.409 72.3647 173.409C67.9329 173.409 64.4102 176.932 64.4102 181.364Z" fill="#F19920"/>
<path d="M65.5444 167.727C61.1126 167.727 57.5898 171.25 57.5898 175.682C57.5898 180.114 61.1126 183.636 65.5444 183.636C69.9763 183.636 73.499 180.114 73.499 175.682C73.499 171.25 69.9763 167.727 65.5444 167.727ZM65.5444 181.364C62.3626 181.364 59.8626 178.864 59.8626 175.682C59.8626 172.5 62.3626 170 65.5444 170C68.7263 170 71.2263 172.5 71.2263 175.682C71.2263 178.864 68.7263 181.364 65.5444 181.364Z" fill="#FFCB5B"/>
<path d="M65.5469 183.523C69.9787 183.636 73.5015 180 73.5015 175.682H73.3878C72.8196 175.682 72.365 176.136 72.2515 176.705C72.0242 178.296 71.2287 179.773 70.0924 180.796C69.1833 181.705 67.9333 182.273 66.5696 182.5C66.0015 182.5 65.5469 182.955 65.5469 183.523Z" fill="#F6B545"/>
<path d="M65.5444 167.841C61.1126 167.727 57.5898 171.364 57.5898 175.682H57.7035C58.2717 175.682 58.7263 175.227 58.8398 174.659C59.0671 173.068 59.8626 171.591 60.9989 170.568C61.908 169.659 63.158 169.091 64.5217 168.864C65.0899 168.864 65.5444 168.409 65.5444 167.841Z" fill="#FFE27A"/>
<path d="M60.6588 176.477C60.6588 173.295 63.1588 170.795 66.3406 170.795C67.7043 170.795 68.9543 171.25 69.977 172.159C68.8406 170.795 67.3633 170 65.5451 170C62.3633 170 59.8633 172.5 59.8633 175.682C59.8633 177.5 60.6587 178.977 61.9087 180C61.1134 179.091 60.6588 177.841 60.6588 176.477Z" fill="#F19920"/>
<path d="M68.9528 179.204C68.8391 179.204 68.7255 179.204 68.6118 179.091C68.3846 178.864 68.3846 178.523 68.6118 178.295C69.2937 177.614 69.6346 176.591 69.6346 175.682C69.6346 175.341 69.8618 175.114 70.2028 175.114C70.5437 175.114 70.7709 175.341 70.7709 175.682C70.7709 176.932 70.3163 178.182 69.5209 179.091C69.2936 179.204 69.0663 179.204 68.9528 179.204Z" fill="#FFCB5B"/>
<path d="M65.5465 179.091C64.8646 179.091 64.4102 178.636 64.4102 177.955V173.409C64.4102 172.727 64.8647 172.273 65.5465 172.273C66.2283 172.273 66.6828 172.728 66.6828 173.409V177.955C66.6829 178.636 66.2283 179.091 65.5465 179.091Z" fill="#F19920"/>
<path d="M70.7737 173.523C71.001 174.205 71.2283 174.887 71.2283 175.682C71.2283 178.864 68.7283 181.364 65.5465 181.364C65.2056 181.364 64.7511 181.364 64.4102 181.25V181.364C64.4102 182.159 64.5238 182.841 64.7511 183.637C64.9783 183.637 65.3192 183.637 65.5465 183.637C69.9783 183.637 73.5011 180.114 73.5011 175.682C73.5011 174.887 73.3874 174.205 73.1602 173.409C72.9329 173.409 72.592 173.409 72.3647 173.409C71.7964 173.409 71.3419 173.409 70.7737 173.523Z" fill="#F6B545"/>
<path d="M71.228 190.455C75.6212 190.455 79.1826 186.893 79.1826 182.5C79.1826 178.107 75.6212 174.546 71.228 174.546C66.8348 174.546 63.2734 178.107 63.2734 182.5C63.2734 186.893 66.8348 190.455 71.228 190.455Z" fill="#F6B545"/>
<path d="M71.228 174.546C66.7962 174.546 63.2734 178.068 63.2734 182.5C63.2734 186.932 66.7962 190.455 71.228 190.455C75.6599 190.455 79.1826 186.932 79.1826 182.5C79.1826 178.068 75.6599 174.546 71.228 174.546ZM71.228 188.182C68.0462 188.182 65.5462 185.682 65.5462 182.5C65.5462 179.318 68.0462 176.818 71.228 176.818C74.4099 176.818 76.9099 179.318 76.9099 182.5C76.9099 185.682 74.4099 188.182 71.228 188.182Z" fill="#FFCB5B"/>
<path d="M71.2266 190.341C75.6584 190.455 79.1812 186.818 79.1812 182.5H79.0675C78.4993 182.5 78.0447 182.955 77.9312 183.523C77.7039 185.114 76.9084 186.591 75.7721 187.614C74.863 188.523 73.613 189.091 72.2493 189.318C71.6812 189.318 71.2266 189.773 71.2266 190.341Z" fill="#F6B545"/>
<path d="M71.228 174.659C66.7962 174.545 63.2734 178.182 63.2734 182.5H63.3871C63.9553 182.5 64.4099 182.045 64.5234 181.477C64.7507 179.886 65.5462 178.409 66.6825 177.386C67.5916 176.477 68.8416 175.909 70.2053 175.682C70.7735 175.682 71.228 175.227 71.228 174.659Z" fill="#FFE27A"/>
<path d="M66.3424 183.295C66.3424 180.114 68.8424 177.614 72.0242 177.614C73.3879 177.614 74.6379 178.068 75.6605 178.977C74.5242 177.614 73.0469 176.818 71.2287 176.818C68.0469 176.818 65.5469 179.318 65.5469 182.5C65.5469 184.318 66.3423 185.795 67.5923 186.818C66.7969 185.909 66.3424 184.659 66.3424 183.295Z" fill="#F19920"/>
<path d="M74.6364 186.023C74.5227 186.023 74.4091 186.023 74.2954 185.909C74.0682 185.682 74.0682 185.341 74.2954 185.113C74.9773 184.432 75.3182 183.409 75.3182 182.5C75.3182 182.159 75.5454 181.932 75.8864 181.932C76.2273 181.932 76.4545 182.159 76.4545 182.5C76.4545 183.75 75.9999 185 75.2045 185.909C74.9773 186.023 74.75 186.023 74.6364 186.023Z" fill="#FFCB5B"/>
<path d="M71.2262 185.909C70.5443 185.909 70.0898 185.455 70.0898 184.773V180.227C70.0898 179.546 70.5444 179.091 71.2262 179.091C71.908 179.091 72.3625 179.546 72.3625 180.227V184.773C72.3626 185.455 71.908 185.909 71.2262 185.909Z" fill="#F19920"/>
</g>
<path d="M120.186 161.116C121.101 161.116 121.927 161.331 122.664 161.76C123.411 162.189 123.994 162.787 124.414 163.552C124.843 164.308 125.058 165.157 125.058 166.1C125.058 167.043 124.843 167.897 124.414 168.662C123.994 169.418 123.411 170.011 122.664 170.44C121.927 170.869 121.101 171.084 120.186 171.084C119.421 171.084 118.721 170.963 118.086 170.72C117.451 170.477 116.919 170.118 116.49 169.642L117.134 168.984C117.909 169.768 118.912 170.16 120.144 170.16C120.835 170.16 121.465 170.001 122.034 169.684C122.603 169.357 123.061 168.914 123.406 168.354C123.761 167.785 123.961 167.145 124.008 166.436H118.954V165.582H123.994C123.919 164.901 123.705 164.294 123.35 163.762C123.005 163.221 122.552 162.801 121.992 162.502C121.432 162.194 120.816 162.04 120.144 162.04C118.912 162.04 117.909 162.432 117.134 163.216L116.49 162.558C116.919 162.082 117.451 161.723 118.086 161.48C118.721 161.237 119.421 161.116 120.186 161.116ZM129.973 167.724H128.293V171H127.299V163.636H128.293V166.87H129.987L132.577 163.636H133.655L130.757 167.206L133.865 171H132.689L129.973 167.724ZM138.212 171.07C137.502 171.07 136.863 170.911 136.294 170.594C135.724 170.267 135.276 169.819 134.95 169.25C134.623 168.681 134.46 168.037 134.46 167.318C134.46 166.599 134.623 165.955 134.95 165.386C135.276 164.817 135.724 164.373 136.294 164.056C136.863 163.739 137.502 163.58 138.212 163.58C138.921 163.58 139.56 163.739 140.13 164.056C140.699 164.373 141.142 164.817 141.46 165.386C141.786 165.955 141.95 166.599 141.95 167.318C141.95 168.037 141.786 168.681 141.46 169.25C141.142 169.819 140.699 170.267 140.13 170.594C139.56 170.911 138.921 171.07 138.212 171.07ZM138.212 170.188C138.734 170.188 139.201 170.071 139.612 169.838C140.032 169.595 140.358 169.255 140.592 168.816C140.825 168.377 140.942 167.878 140.942 167.318C140.942 166.758 140.825 166.259 140.592 165.82C140.358 165.381 140.032 165.045 139.612 164.812C139.201 164.569 138.734 164.448 138.212 164.448C137.689 164.448 137.218 164.569 136.798 164.812C136.387 165.045 136.06 165.381 135.818 165.82C135.584 166.259 135.468 166.758 135.468 167.318C135.468 167.878 135.584 168.377 135.818 168.816C136.06 169.255 136.387 169.595 136.798 169.838C137.218 170.071 137.689 170.188 138.212 170.188ZM144.074 163.636H145.068V166.898H149.702V163.636H150.696V171H149.702V167.752H145.068V171H144.074V163.636ZM156.559 171.07C155.85 171.07 155.211 170.911 154.641 170.594C154.072 170.267 153.624 169.819 153.297 169.25C152.971 168.681 152.807 168.037 152.807 167.318C152.807 166.599 152.971 165.955 153.297 165.386C153.624 164.817 154.072 164.373 154.641 164.056C155.211 163.739 155.85 163.58 156.559 163.58C157.269 163.58 157.908 163.739 158.477 164.056C159.047 164.373 159.49 164.817 159.807 165.386C160.134 165.955 160.297 166.599 160.297 167.318C160.297 168.037 160.134 168.681 159.807 169.25C159.49 169.819 159.047 170.267 158.477 170.594C157.908 170.911 157.269 171.07 156.559 171.07ZM156.559 170.188C157.082 170.188 157.549 170.071 157.959 169.838C158.379 169.595 158.706 169.255 158.939 168.816C159.173 168.377 159.289 167.878 159.289 167.318C159.289 166.758 159.173 166.259 158.939 165.82C158.706 165.381 158.379 165.045 157.959 164.812C157.549 164.569 157.082 164.448 156.559 164.448C156.037 164.448 155.565 164.569 155.145 164.812C154.735 165.045 154.408 165.381 154.165 165.82C153.932 166.259 153.815 166.758 153.815 167.318C153.815 167.878 153.932 168.377 154.165 168.816C154.408 169.255 154.735 169.595 155.145 169.838C155.565 170.071 156.037 170.188 156.559 170.188ZM170.654 163.636V171H169.744V165.176L166.762 170.104H166.314L163.332 165.162V171H162.422V163.636H163.43L166.552 168.942L169.73 163.636H170.654ZM176.646 166.24C177.57 166.249 178.27 166.455 178.746 166.856C179.232 167.257 179.474 167.836 179.474 168.592C179.474 169.376 179.213 169.978 178.69 170.398C178.177 170.818 177.43 171.023 176.45 171.014L173.482 171V163.636H174.476V166.212L176.646 166.24ZM176.394 170.258C177.076 170.267 177.589 170.132 177.934 169.852C178.289 169.563 178.466 169.143 178.466 168.592C178.466 168.051 178.294 167.649 177.948 167.388C177.603 167.127 177.085 166.991 176.394 166.982L174.476 166.954V170.23L176.394 170.258ZM185.813 164.518H183.027V171H182.033V164.518H179.247V163.636H185.813V164.518ZM193.348 167.626H187.188C187.244 168.391 187.538 169.012 188.07 169.488C188.602 169.955 189.274 170.188 190.086 170.188C190.543 170.188 190.963 170.109 191.346 169.95C191.729 169.782 192.06 169.539 192.34 169.222L192.9 169.866C192.573 170.258 192.163 170.557 191.668 170.762C191.183 170.967 190.646 171.07 190.058 171.07C189.302 171.07 188.63 170.911 188.042 170.594C187.463 170.267 187.011 169.819 186.684 169.25C186.357 168.681 186.194 168.037 186.194 167.318C186.194 166.599 186.348 165.955 186.656 165.386C186.973 164.817 187.403 164.373 187.944 164.056C188.495 163.739 189.111 163.58 189.792 163.58C190.473 163.58 191.085 163.739 191.626 164.056C192.167 164.373 192.592 164.817 192.9 165.386C193.208 165.946 193.362 166.59 193.362 167.318L193.348 167.626ZM189.792 164.434C189.083 164.434 188.485 164.663 188 165.12C187.524 165.568 187.253 166.156 187.188 166.884H192.41C192.345 166.156 192.069 165.568 191.584 165.12C191.108 164.663 190.511 164.434 189.792 164.434ZM206.409 170.132V172.778H205.471V171H198.877V172.778H197.939V170.132H198.359C198.853 170.104 199.189 169.74 199.367 169.04C199.544 168.34 199.665 167.36 199.731 166.1L199.829 163.636H205.261V170.132H206.409ZM200.641 166.156C200.594 167.201 200.505 168.065 200.375 168.746C200.244 169.418 200.011 169.88 199.675 170.132H204.267V164.518H200.725L200.641 166.156ZM211.384 171.07C210.674 171.07 210.035 170.911 209.466 170.594C208.896 170.267 208.448 169.819 208.122 169.25C207.795 168.681 207.632 168.037 207.632 167.318C207.632 166.599 207.795 165.955 208.122 165.386C208.448 164.817 208.896 164.373 209.466 164.056C210.035 163.739 210.674 163.58 211.384 163.58C212.093 163.58 212.732 163.739 213.302 164.056C213.871 164.373 214.314 164.817 214.632 165.386C214.958 165.955 215.122 166.599 215.122 167.318C215.122 168.037 214.958 168.681 214.632 169.25C214.314 169.819 213.871 170.267 213.302 170.594C212.732 170.911 212.093 171.07 211.384 171.07ZM211.384 170.188C211.906 170.188 212.373 170.071 212.784 169.838C213.204 169.595 213.53 169.255 213.764 168.816C213.997 168.377 214.114 167.878 214.114 167.318C214.114 166.758 213.997 166.259 213.764 165.82C213.53 165.381 213.204 165.045 212.784 164.812C212.373 164.569 211.906 164.448 211.384 164.448C210.861 164.448 210.39 164.569 209.97 164.812C209.559 165.045 209.232 165.381 208.99 165.82C208.756 166.259 208.64 166.758 208.64 167.318C208.64 167.878 208.756 168.377 208.99 168.816C209.232 169.255 209.559 169.595 209.97 169.838C210.39 170.071 210.861 170.188 211.384 170.188ZM225.838 165.862C226.454 166.067 226.925 166.375 227.252 166.786C227.588 167.197 227.756 167.691 227.756 168.27C227.756 168.839 227.602 169.339 227.294 169.768C226.986 170.188 226.543 170.515 225.964 170.748C225.395 170.972 224.723 171.084 223.948 171.084C222.772 171.084 221.848 170.832 221.176 170.328C220.504 169.824 220.168 169.138 220.168 168.27C220.168 167.682 220.327 167.187 220.644 166.786C220.971 166.375 221.442 166.067 222.058 165.862C221.554 165.666 221.171 165.386 220.91 165.022C220.649 164.649 220.518 164.21 220.518 163.706C220.518 162.913 220.826 162.283 221.442 161.816C222.067 161.349 222.903 161.116 223.948 161.116C224.639 161.116 225.241 161.223 225.754 161.438C226.277 161.643 226.683 161.942 226.972 162.334C227.261 162.726 227.406 163.183 227.406 163.706C227.406 164.21 227.271 164.649 227 165.022C226.729 165.386 226.342 165.666 225.838 165.862ZM221.526 163.734C221.526 164.275 221.741 164.705 222.17 165.022C222.599 165.339 223.192 165.498 223.948 165.498C224.704 165.498 225.297 165.339 225.726 165.022C226.165 164.705 226.384 164.28 226.384 163.748C226.384 163.197 226.16 162.763 225.712 162.446C225.273 162.129 224.685 161.97 223.948 161.97C223.201 161.97 222.609 162.129 222.17 162.446C221.741 162.763 221.526 163.193 221.526 163.734ZM223.948 170.23C224.816 170.23 225.493 170.053 225.978 169.698C226.473 169.343 226.72 168.863 226.72 168.256C226.72 167.649 226.473 167.173 225.978 166.828C225.493 166.473 224.816 166.296 223.948 166.296C223.089 166.296 222.413 166.473 221.918 166.828C221.433 167.173 221.19 167.649 221.19 168.256C221.19 168.872 221.433 169.357 221.918 169.712C222.403 170.057 223.08 170.23 223.948 170.23ZM236.068 161.2V161.914L231.966 171H230.874L234.906 162.096H229.866V163.93H228.872V161.2H236.068ZM239.495 166.45C238.833 166.45 238.296 166.207 237.885 165.722C237.484 165.227 237.283 164.583 237.283 163.79C237.283 162.997 237.484 162.357 237.885 161.872C238.296 161.377 238.833 161.13 239.495 161.13C240.149 161.13 240.681 161.373 241.091 161.858C241.502 162.343 241.707 162.987 241.707 163.79C241.707 164.593 241.502 165.237 241.091 165.722C240.681 166.207 240.149 166.45 239.495 166.45ZM245.431 161.2H246.257L239.565 171H238.739L245.431 161.2ZM239.495 165.82C239.953 165.82 240.317 165.643 240.587 165.288C240.867 164.924 241.007 164.425 241.007 163.79C241.007 163.155 240.867 162.661 240.587 162.306C240.317 161.942 239.953 161.76 239.495 161.76C239.029 161.76 238.66 161.942 238.389 162.306C238.119 162.67 237.983 163.165 237.983 163.79C237.983 164.415 238.119 164.91 238.389 165.274C238.66 165.638 239.029 165.82 239.495 165.82ZM245.501 171.07C244.848 171.07 244.316 170.827 243.905 170.342C243.495 169.847 243.289 169.203 243.289 168.41C243.289 167.617 243.495 166.977 243.905 166.492C244.316 165.997 244.848 165.75 245.501 165.75C246.164 165.75 246.696 165.997 247.097 166.492C247.508 166.977 247.713 167.617 247.713 168.41C247.713 169.203 247.508 169.847 247.097 170.342C246.696 170.827 246.164 171.07 245.501 171.07ZM245.501 170.44C245.968 170.44 246.337 170.258 246.607 169.894C246.878 169.53 247.013 169.035 247.013 168.41C247.013 167.785 246.878 167.29 246.607 166.926C246.337 166.562 245.968 166.38 245.501 166.38C245.044 166.38 244.675 166.562 244.395 166.926C244.125 167.281 243.989 167.775 243.989 168.41C243.989 169.045 244.125 169.544 244.395 169.908C244.675 170.263 245.044 170.44 245.501 170.44ZM256.951 163.818C257.632 163.818 258.239 163.972 258.771 164.28C259.312 164.579 259.732 165.003 260.031 165.554C260.329 166.095 260.479 166.716 260.479 167.416C260.479 168.135 260.32 168.774 260.003 169.334C259.695 169.885 259.261 170.314 258.701 170.622C258.141 170.93 257.497 171.084 256.769 171.084C255.546 171.084 254.599 170.655 253.927 169.796C253.255 168.937 252.919 167.752 252.919 166.24C252.919 164.663 253.217 163.454 253.815 162.614C254.421 161.774 255.364 161.205 256.643 160.906L259.947 160.15L260.115 161.06L257.007 161.774C255.952 162.007 255.177 162.423 254.683 163.02C254.188 163.608 253.917 164.481 253.871 165.638C254.169 165.069 254.585 164.625 255.117 164.308C255.649 163.981 256.26 163.818 256.951 163.818ZM256.797 170.258C257.31 170.258 257.767 170.141 258.169 169.908C258.579 169.665 258.897 169.329 259.121 168.9C259.354 168.471 259.471 167.985 259.471 167.444C259.471 166.903 259.359 166.427 259.135 166.016C258.911 165.605 258.593 165.288 258.183 165.064C257.781 164.831 257.319 164.714 256.797 164.714C256.274 164.714 255.807 164.831 255.397 165.064C254.995 165.288 254.678 165.605 254.445 166.016C254.221 166.427 254.109 166.903 254.109 167.444C254.109 167.985 254.221 168.471 254.445 168.9C254.678 169.329 255 169.665 255.411 169.908C255.821 170.141 256.283 170.258 256.797 170.258ZM268.937 163.58C269.628 163.58 270.249 163.739 270.799 164.056C271.359 164.373 271.798 164.817 272.115 165.386C272.433 165.955 272.591 166.599 272.591 167.318C272.591 168.037 272.433 168.681 272.115 169.25C271.798 169.819 271.359 170.267 270.799 170.594C270.249 170.911 269.628 171.07 268.937 171.07C268.284 171.07 267.691 170.93 267.159 170.65C266.627 170.361 266.193 169.964 265.857 169.46C265.531 168.956 265.339 168.377 265.283 167.724H263.603V171H262.609V163.636H263.603V166.814H265.297C265.372 166.179 265.573 165.619 265.899 165.134C266.235 164.639 266.665 164.257 267.187 163.986C267.71 163.715 268.293 163.58 268.937 163.58ZM268.937 170.202C269.441 170.202 269.894 170.081 270.295 169.838C270.706 169.595 271.028 169.255 271.261 168.816C271.495 168.377 271.611 167.878 271.611 167.318C271.611 166.758 271.495 166.259 271.261 165.82C271.028 165.381 270.706 165.045 270.295 164.812C269.894 164.569 269.441 164.448 268.937 164.448C268.433 164.448 267.976 164.569 267.565 164.812C267.164 165.045 266.847 165.381 266.613 165.82C266.38 166.259 266.263 166.758 266.263 167.318C266.263 167.878 266.38 168.377 266.613 168.816C266.847 169.255 267.164 169.595 267.565 169.838C267.976 170.081 268.433 170.202 268.937 170.202ZM281.864 170.132V172.778H280.926V171H274.332V172.778H273.394V170.132H273.814C274.308 170.104 274.644 169.74 274.822 169.04C274.999 168.34 275.12 167.36 275.186 166.1L275.284 163.636H280.716V170.132H281.864ZM276.096 166.156C276.049 167.201 275.96 168.065 275.83 168.746C275.699 169.418 275.466 169.88 275.13 170.132H279.722V164.518H276.18L276.096 166.156ZM290.255 167.724H288.659V171H287.665V167.724H286.069L283.815 171H282.625L285.271 167.206L282.835 163.636H283.913L286.069 166.87H287.665V163.636H288.659V166.87H290.255L292.425 163.636H293.503L291.067 167.22L293.713 171H292.523L290.255 167.724ZM301.547 167.626H295.387C295.443 168.391 295.737 169.012 296.269 169.488C296.801 169.955 297.473 170.188 298.285 170.188C298.743 170.188 299.163 170.109 299.545 169.95C299.928 169.782 300.259 169.539 300.539 169.222L301.099 169.866C300.773 170.258 300.362 170.557 299.867 170.762C299.382 170.967 298.845 171.07 298.257 171.07C297.501 171.07 296.829 170.911 296.241 170.594C295.663 170.267 295.21 169.819 294.883 169.25C294.557 168.681 294.393 168.037 294.393 167.318C294.393 166.599 294.547 165.955 294.855 165.386C295.173 164.817 295.602 164.373 296.143 164.056C296.694 163.739 297.31 163.58 297.991 163.58C298.673 163.58 299.284 163.739 299.825 164.056C300.367 164.373 300.791 164.817 301.099 165.386C301.407 165.946 301.561 166.59 301.561 167.318L301.547 167.626ZM297.991 164.434C297.282 164.434 296.685 164.663 296.199 165.12C295.723 165.568 295.453 166.156 295.387 166.884H300.609C300.544 166.156 300.269 165.568 299.783 165.12C299.307 164.663 298.71 164.434 297.991 164.434ZM308.614 164.518H305.828V171H304.834V164.518H302.048V163.636H308.614V164.518ZM312.585 163.58C313.546 163.58 314.283 163.823 314.797 164.308C315.31 164.784 315.567 165.493 315.567 166.436V171H314.615V169.852C314.391 170.235 314.059 170.533 313.621 170.748C313.191 170.963 312.678 171.07 312.081 171.07C311.259 171.07 310.606 170.874 310.121 170.482C309.635 170.09 309.393 169.572 309.393 168.928C309.393 168.303 309.617 167.799 310.065 167.416C310.522 167.033 311.245 166.842 312.235 166.842H314.573V166.394C314.573 165.759 314.395 165.279 314.041 164.952C313.686 164.616 313.168 164.448 312.487 164.448C312.02 164.448 311.572 164.527 311.143 164.686C310.713 164.835 310.345 165.045 310.037 165.316L309.589 164.574C309.962 164.257 310.41 164.014 310.933 163.846C311.455 163.669 312.006 163.58 312.585 163.58ZM312.235 170.286C312.795 170.286 313.275 170.16 313.677 169.908C314.078 169.647 314.377 169.273 314.573 168.788V167.584H312.263C311.003 167.584 310.373 168.023 310.373 168.9C310.373 169.329 310.536 169.67 310.863 169.922C311.189 170.165 311.647 170.286 312.235 170.286ZM321.877 163.636H322.871V166.898H327.505V163.636H328.499V171H327.505V167.752H322.871V171H321.877V163.636ZM333.858 163.58C334.819 163.58 335.557 163.823 336.07 164.308C336.583 164.784 336.84 165.493 336.84 166.436V171H335.888V169.852C335.664 170.235 335.333 170.533 334.894 170.748C334.465 170.963 333.951 171.07 333.354 171.07C332.533 171.07 331.879 170.874 331.394 170.482C330.909 170.09 330.666 169.572 330.666 168.928C330.666 168.303 330.89 167.799 331.338 167.416C331.795 167.033 332.519 166.842 333.508 166.842H335.846V166.394C335.846 165.759 335.669 165.279 335.314 164.952C334.959 164.616 334.441 164.448 333.76 164.448C333.293 164.448 332.845 164.527 332.416 164.686C331.987 164.835 331.618 165.045 331.31 165.316L330.862 164.574C331.235 164.257 331.683 164.014 332.206 163.846C332.729 163.669 333.279 163.58 333.858 163.58ZM333.508 170.286C334.068 170.286 334.549 170.16 334.95 169.908C335.351 169.647 335.65 169.273 335.846 168.788V167.584H333.536C332.276 167.584 331.646 168.023 331.646 168.9C331.646 169.329 331.809 169.67 332.136 169.922C332.463 170.165 332.92 170.286 333.508 170.286ZM352.04 167.304C352.04 168.452 351.662 169.353 350.906 170.006C350.15 170.659 349.082 171.014 347.7 171.07V173.716H346.734V171.084C345.362 171.028 344.298 170.673 343.542 170.02C342.796 169.357 342.422 168.452 342.422 167.304C342.422 166.165 342.796 165.274 343.542 164.63C344.298 163.986 345.362 163.636 346.734 163.58V160.612H347.7V163.58C349.082 163.645 350.15 164 350.906 164.644C351.662 165.288 352.04 166.175 352.04 167.304ZM343.402 167.304C343.402 168.181 343.682 168.867 344.242 169.362C344.812 169.857 345.642 170.137 346.734 170.202V164.462C345.652 164.518 344.826 164.793 344.256 165.288C343.687 165.773 343.402 166.445 343.402 167.304ZM347.7 170.202C348.792 170.146 349.623 169.871 350.192 169.376C350.771 168.881 351.06 168.191 351.06 167.304C351.06 166.436 350.771 165.759 350.192 165.274C349.623 164.789 348.792 164.518 347.7 164.462V170.202ZM357.937 163.58C358.627 163.58 359.253 163.739 359.813 164.056C360.373 164.364 360.811 164.803 361.129 165.372C361.446 165.941 361.605 166.59 361.605 167.318C361.605 168.055 361.446 168.709 361.129 169.278C360.811 169.847 360.373 170.291 359.813 170.608C359.262 170.916 358.637 171.07 357.937 171.07C357.339 171.07 356.798 170.949 356.313 170.706C355.837 170.454 355.445 170.09 355.137 169.614V173.716H354.143V163.636H355.095V165.092C355.393 164.607 355.785 164.233 356.271 163.972C356.765 163.711 357.321 163.58 357.937 163.58ZM357.867 170.188C358.38 170.188 358.847 170.071 359.267 169.838C359.687 169.595 360.013 169.255 360.247 168.816C360.489 168.377 360.611 167.878 360.611 167.318C360.611 166.758 360.489 166.263 360.247 165.834C360.013 165.395 359.687 165.055 359.267 164.812C358.847 164.569 358.38 164.448 357.867 164.448C357.344 164.448 356.873 164.569 356.453 164.812C356.042 165.055 355.715 165.395 355.473 165.834C355.239 166.263 355.123 166.758 355.123 167.318C355.123 167.878 355.239 168.377 355.473 168.816C355.715 169.255 356.042 169.595 356.453 169.838C356.873 170.071 357.344 170.188 357.867 170.188ZM363.74 163.636H364.734V169.488L369.648 163.636H370.53V171H369.536V165.148L364.636 171H363.74V163.636ZM379.399 163.636V171H378.405V164.518H374.877L374.779 166.338C374.704 167.869 374.527 169.045 374.247 169.866C373.967 170.687 373.468 171.098 372.749 171.098C372.553 171.098 372.315 171.061 372.035 170.986L372.105 170.132C372.273 170.169 372.39 170.188 372.455 170.188C372.838 170.188 373.127 170.011 373.323 169.656C373.519 169.301 373.65 168.863 373.715 168.34C373.78 167.817 373.836 167.127 373.883 166.268L374.009 163.636H379.399ZM384.759 163.58C385.72 163.58 386.457 163.823 386.971 164.308C387.484 164.784 387.741 165.493 387.741 166.436V171H386.789V169.852C386.565 170.235 386.233 170.533 385.795 170.748C385.365 170.963 384.852 171.07 384.255 171.07C383.433 171.07 382.78 170.874 382.295 170.482C381.809 170.09 381.567 169.572 381.567 168.928C381.567 168.303 381.791 167.799 382.239 167.416C382.696 167.033 383.419 166.842 384.409 166.842H386.747V166.394C386.747 165.759 386.569 165.279 386.215 164.952C385.86 164.616 385.342 164.448 384.661 164.448C384.194 164.448 383.746 164.527 383.317 164.686C382.887 164.835 382.519 165.045 382.211 165.316L381.763 164.574C382.136 164.257 382.584 164.014 383.107 163.846C383.629 163.669 384.18 163.58 384.759 163.58ZM384.409 170.286C384.969 170.286 385.449 170.16 385.851 169.908C386.252 169.647 386.551 169.273 386.747 168.788V167.584H384.437C383.177 167.584 382.547 168.023 382.547 168.9C382.547 169.329 382.71 169.67 383.037 169.922C383.363 170.165 383.821 170.286 384.409 170.286ZM390.387 163.636H391.381V166.898H396.015V163.636H397.009V171H396.015V167.752H391.381V171H390.387V163.636ZM402.914 171.07C402.186 171.07 401.533 170.911 400.954 170.594C400.385 170.277 399.937 169.833 399.61 169.264C399.283 168.685 399.12 168.037 399.12 167.318C399.12 166.599 399.283 165.955 399.61 165.386C399.937 164.817 400.385 164.373 400.954 164.056C401.533 163.739 402.186 163.58 402.914 163.58C403.549 163.58 404.113 163.706 404.608 163.958C405.112 164.201 405.509 164.56 405.798 165.036L405.056 165.54C404.813 165.176 404.505 164.905 404.132 164.728C403.759 164.541 403.353 164.448 402.914 164.448C402.382 164.448 401.901 164.569 401.472 164.812C401.052 165.045 400.721 165.381 400.478 165.82C400.245 166.259 400.128 166.758 400.128 167.318C400.128 167.887 400.245 168.391 400.478 168.83C400.721 169.259 401.052 169.595 401.472 169.838C401.901 170.071 402.382 170.188 402.914 170.188C403.353 170.188 403.759 170.099 404.132 169.922C404.505 169.745 404.813 169.474 405.056 169.11L405.798 169.614C405.509 170.09 405.112 170.454 404.608 170.706C404.104 170.949 403.539 171.07 402.914 171.07ZM414.04 167.626H407.88C407.936 168.391 408.23 169.012 408.762 169.488C409.294 169.955 409.966 170.188 410.778 170.188C411.235 170.188 411.655 170.109 412.038 169.95C412.42 169.782 412.752 169.539 413.032 169.222L413.592 169.866C413.265 170.258 412.854 170.557 412.36 170.762C411.874 170.967 411.338 171.07 410.75 171.07C409.994 171.07 409.322 170.911 408.734 170.594C408.155 170.267 407.702 169.819 407.376 169.25C407.049 168.681 406.886 168.037 406.886 167.318C406.886 166.599 407.04 165.955 407.348 165.386C407.665 164.817 408.094 164.373 408.636 164.056C409.186 163.739 409.802 163.58 410.484 163.58C411.165 163.58 411.776 163.739 412.318 164.056C412.859 164.373 413.284 164.817 413.592 165.386C413.9 165.946 414.054 166.59 414.054 167.318L414.04 167.626ZM410.484 164.434C409.774 164.434 409.177 164.663 408.692 165.12C408.216 165.568 407.945 166.156 407.88 166.884H413.102C413.036 166.156 412.761 165.568 412.276 165.12C411.8 164.663 411.202 164.434 410.484 164.434Z" fill="#222222"/>
<g filter="url(#filter2_d_0_1)">
<rect x="16" y="240" width="533" height="90" rx="20" fill="#F6FAFD"/>
</g>
<g clip-path="url(#clip2_0_1)">
<path d="M61 310C74.8071 310 86 298.807 86 285C86 271.193 74.8071 260 61 260C47.1929 260 36 271.193 36 285C36 298.807 47.1929 310 61 310Z" fill="#EAB14D"/>
<path d="M60.9982 260C60.552 260 60.1085 260.012 59.668 260.035C72.8566 260.727 83.3378 271.639 83.3378 285C83.3378 298.361 72.8566 309.273 59.668 309.965C60.1085 309.988 60.552 310 60.9982 310C74.8054 310 85.9983 298.807 85.9983 285C85.9983 271.193 74.8054 260 60.9982 260Z" fill="#E49542"/>
<path d="M61.0007 304.481C71.7598 304.481 80.4818 295.759 80.4818 285C80.4818 274.241 71.7598 265.519 61.0007 265.519C50.2415 265.519 41.5195 274.241 41.5195 285C41.5195 295.759 50.2415 304.481 61.0007 304.481Z" fill="#F4FBFF"/>
<path d="M61.0005 265.519C60.4609 265.519 59.9269 265.542 59.3984 265.585C69.4081 266.4 77.2776 274.78 77.2776 285C77.2776 295.22 69.4081 303.6 59.3984 304.415C59.9269 304.458 60.4609 304.481 61.0005 304.481C71.7597 304.481 80.4816 295.759 80.4816 285C80.4816 274.241 71.7597 265.519 61.0005 265.519Z" fill="#DAF1F4"/>
<path d="M61.0006 271.515C60.5839 271.515 60.2461 271.177 60.2461 270.76V269.653C60.2461 269.236 60.5839 268.898 61.0006 268.898C61.4173 268.898 61.7552 269.236 61.7552 269.653V270.76C61.7552 271.177 61.4173 271.515 61.0006 271.515Z" fill="#2B4D66"/>
<path d="M71.028 275.703C70.8348 275.703 70.6418 275.629 70.4944 275.482C70.1998 275.187 70.1998 274.709 70.4945 274.415L71.2776 273.632C71.5722 273.337 72.05 273.337 72.3447 273.632C72.6393 273.926 72.6393 274.404 72.3446 274.699L71.5615 275.482C71.4141 275.629 71.2211 275.703 71.028 275.703Z" fill="#2B4D66"/>
<path d="M76.2643 285.755H75.1568C74.74 285.755 74.4023 285.417 74.4023 285C74.4023 284.583 74.7401 284.246 75.1568 284.246H76.2643C76.6811 284.246 77.0187 284.583 77.0187 285C77.0187 285.417 76.681 285.755 76.2643 285.755Z" fill="#2B4D66"/>
<path d="M71.7524 296.566C71.5593 296.566 71.3662 296.492 71.2188 296.345L70.4358 295.562C70.1412 295.267 70.1412 294.789 70.4358 294.495C70.7305 294.2 71.2082 294.2 71.503 294.495L72.286 295.278C72.5806 295.572 72.5806 296.05 72.286 296.345C72.1386 296.492 71.9455 296.566 71.7524 296.566Z" fill="#2B4D66"/>
<path d="M60.9186 301.02C60.5019 301.02 60.1641 300.682 60.1641 300.265V299.158C60.1641 298.741 60.5019 298.404 60.9186 298.404C61.3353 298.404 61.673 298.741 61.673 299.158V300.265C61.673 300.682 61.3353 301.02 60.9186 301.02Z" fill="#2B4D66"/>
<path d="M50.1061 296.508C49.913 296.508 49.7198 296.434 49.5726 296.287C49.2778 295.992 49.2779 295.514 49.5726 295.22L50.3557 294.436C50.6504 294.142 51.128 294.142 51.4228 294.437C51.7174 294.731 51.7174 295.209 51.4227 295.504L50.6396 296.287C50.4923 296.434 50.2991 296.508 50.1061 296.508Z" fill="#2B4D66"/>
<path d="M46.7604 285.673H45.6529C45.2362 285.673 44.8984 285.335 44.8984 284.918C44.8984 284.501 45.2362 284.164 45.6529 284.164H46.7604C47.1771 284.164 47.5148 284.501 47.5148 284.918C47.5149 285.335 47.1771 285.673 46.7604 285.673Z" fill="#2B4D66"/>
<path d="M50.9478 275.645C50.7547 275.645 50.5616 275.571 50.4143 275.424L49.6312 274.641C49.3365 274.346 49.3364 273.868 49.6311 273.574C49.9258 273.279 50.4034 273.279 50.6982 273.573L51.4813 274.357C51.7759 274.651 51.776 275.129 51.4814 275.424C51.3339 275.571 51.1408 275.645 50.9478 275.645Z" fill="#2B4D66"/>
<path d="M60.9986 285.754H54.5904C54.1737 285.754 53.8359 285.417 53.8359 285C53.8359 284.583 54.1737 284.245 54.5904 284.245H60.244V274.646C60.244 274.229 60.5818 273.892 60.9985 273.892C61.4152 273.892 61.753 274.229 61.753 274.646V285C61.7531 285.417 61.4153 285.754 60.9986 285.754Z" fill="#2B4D66"/>
<path d="M68.7416 289.735C68.6254 289.735 68.5076 289.708 68.3971 289.652L60.6557 285.671C60.2851 285.48 60.1392 285.025 60.3298 284.655C60.5203 284.284 60.9752 284.138 61.3459 284.329L69.0873 288.31C69.4579 288.5 69.6039 288.955 69.4133 289.326C69.2794 289.586 69.0153 289.735 68.7416 289.735Z" fill="#DA4A54"/>
<path d="M60.9982 287.014C62.1105 287.014 63.0121 286.112 63.0121 285C63.0121 283.888 62.1105 282.986 60.9982 282.986C59.886 282.986 58.9844 283.888 58.9844 285C58.9844 286.112 59.886 287.014 60.9982 287.014Z" fill="#365E7D"/>
</g>
<path d="M120.186 281.116C121.101 281.116 121.927 281.331 122.664 281.76C123.411 282.189 123.994 282.787 124.414 283.552C124.843 284.308 125.058 285.157 125.058 286.1C125.058 287.043 124.843 287.897 124.414 288.662C123.994 289.418 123.411 290.011 122.664 290.44C121.927 290.869 121.101 291.084 120.186 291.084C119.421 291.084 118.721 290.963 118.086 290.72C117.451 290.477 116.919 290.118 116.49 289.642L117.134 288.984C117.909 289.768 118.912 290.16 120.144 290.16C120.835 290.16 121.465 290.001 122.034 289.684C122.603 289.357 123.061 288.914 123.406 288.354C123.761 287.785 123.961 287.145 124.008 286.436H118.954V285.582H123.994C123.919 284.901 123.705 284.294 123.35 283.762C123.005 283.221 122.552 282.801 121.992 282.502C121.432 282.194 120.816 282.04 120.144 282.04C118.912 282.04 117.909 282.432 117.134 283.216L116.49 282.558C116.919 282.082 117.451 281.723 118.086 281.48C118.721 281.237 119.421 281.116 120.186 281.116ZM129.973 287.724H128.293V291H127.299V283.636H128.293V286.87H129.987L132.577 283.636H133.655L130.757 287.206L133.865 291H132.689L129.973 287.724ZM138.212 291.07C137.502 291.07 136.863 290.911 136.294 290.594C135.724 290.267 135.276 289.819 134.95 289.25C134.623 288.681 134.46 288.037 134.46 287.318C134.46 286.599 134.623 285.955 134.95 285.386C135.276 284.817 135.724 284.373 136.294 284.056C136.863 283.739 137.502 283.58 138.212 283.58C138.921 283.58 139.56 283.739 140.13 284.056C140.699 284.373 141.142 284.817 141.46 285.386C141.786 285.955 141.95 286.599 141.95 287.318C141.95 288.037 141.786 288.681 141.46 289.25C141.142 289.819 140.699 290.267 140.13 290.594C139.56 290.911 138.921 291.07 138.212 291.07ZM138.212 290.188C138.734 290.188 139.201 290.071 139.612 289.838C140.032 289.595 140.358 289.255 140.592 288.816C140.825 288.377 140.942 287.878 140.942 287.318C140.942 286.758 140.825 286.259 140.592 285.82C140.358 285.381 140.032 285.045 139.612 284.812C139.201 284.569 138.734 284.448 138.212 284.448C137.689 284.448 137.218 284.569 136.798 284.812C136.387 285.045 136.06 285.381 135.818 285.82C135.584 286.259 135.468 286.758 135.468 287.318C135.468 287.878 135.584 288.377 135.818 288.816C136.06 289.255 136.387 289.595 136.798 289.838C137.218 290.071 137.689 290.188 138.212 290.188ZM144.074 283.636H145.068V286.898H149.702V283.636H150.696V291H149.702V287.752H145.068V291H144.074V283.636ZM156.559 291.07C155.85 291.07 155.211 290.911 154.641 290.594C154.072 290.267 153.624 289.819 153.297 289.25C152.971 288.681 152.807 288.037 152.807 287.318C152.807 286.599 152.971 285.955 153.297 285.386C153.624 284.817 154.072 284.373 154.641 284.056C155.211 283.739 155.85 283.58 156.559 283.58C157.269 283.58 157.908 283.739 158.477 284.056C159.047 284.373 159.49 284.817 159.807 285.386C160.134 285.955 160.297 286.599 160.297 287.318C160.297 288.037 160.134 288.681 159.807 289.25C159.49 289.819 159.047 290.267 158.477 290.594C157.908 290.911 157.269 291.07 156.559 291.07ZM156.559 290.188C157.082 290.188 157.549 290.071 157.959 289.838C158.379 289.595 158.706 289.255 158.939 288.816C159.173 288.377 159.289 287.878 159.289 287.318C159.289 286.758 159.173 286.259 158.939 285.82C158.706 285.381 158.379 285.045 157.959 284.812C157.549 284.569 157.082 284.448 156.559 284.448C156.037 284.448 155.565 284.569 155.145 284.812C154.735 285.045 154.408 285.381 154.165 285.82C153.932 286.259 153.815 286.758 153.815 287.318C153.815 287.878 153.932 288.377 154.165 288.816C154.408 289.255 154.735 289.595 155.145 289.838C155.565 290.071 156.037 290.188 156.559 290.188ZM170.654 283.636V291H169.744V285.176L166.762 290.104H166.314L163.332 285.162V291H162.422V283.636H163.43L166.552 288.942L169.73 283.636H170.654ZM176.646 286.24C177.57 286.249 178.27 286.455 178.746 286.856C179.232 287.257 179.474 287.836 179.474 288.592C179.474 289.376 179.213 289.978 178.69 290.398C178.177 290.818 177.43 291.023 176.45 291.014L173.482 291V283.636H174.476V286.212L176.646 286.24ZM176.394 290.258C177.076 290.267 177.589 290.132 177.934 289.852C178.289 289.563 178.466 289.143 178.466 288.592C178.466 288.051 178.294 287.649 177.948 287.388C177.603 287.127 177.085 286.991 176.394 286.982L174.476 286.954V290.23L176.394 290.258ZM185.813 284.518H183.027V291H182.033V284.518H179.247V283.636H185.813V284.518ZM193.348 287.626H187.188C187.244 288.391 187.538 289.012 188.07 289.488C188.602 289.955 189.274 290.188 190.086 290.188C190.543 290.188 190.963 290.109 191.346 289.95C191.729 289.782 192.06 289.539 192.34 289.222L192.9 289.866C192.573 290.258 192.163 290.557 191.668 290.762C191.183 290.967 190.646 291.07 190.058 291.07C189.302 291.07 188.63 290.911 188.042 290.594C187.463 290.267 187.011 289.819 186.684 289.25C186.357 288.681 186.194 288.037 186.194 287.318C186.194 286.599 186.348 285.955 186.656 285.386C186.973 284.817 187.403 284.373 187.944 284.056C188.495 283.739 189.111 283.58 189.792 283.58C190.473 283.58 191.085 283.739 191.626 284.056C192.167 284.373 192.592 284.817 192.9 285.386C193.208 285.946 193.362 286.59 193.362 287.318L193.348 287.626ZM189.792 284.434C189.083 284.434 188.485 284.663 188 285.12C187.524 285.568 187.253 286.156 187.188 286.884H192.41C192.345 286.156 192.069 285.568 191.584 285.12C191.108 284.663 190.511 284.434 189.792 284.434ZM206.409 290.132V292.778H205.471V291H198.877V292.778H197.939V290.132H198.359C198.853 290.104 199.189 289.74 199.367 289.04C199.544 288.34 199.665 287.36 199.731 286.1L199.829 283.636H205.261V290.132H206.409ZM200.641 286.156C200.594 287.201 200.505 288.065 200.375 288.746C200.244 289.418 200.011 289.88 199.675 290.132H204.267V284.518H200.725L200.641 286.156ZM211.384 291.07C210.674 291.07 210.035 290.911 209.466 290.594C208.896 290.267 208.448 289.819 208.122 289.25C207.795 288.681 207.632 288.037 207.632 287.318C207.632 286.599 207.795 285.955 208.122 285.386C208.448 284.817 208.896 284.373 209.466 284.056C210.035 283.739 210.674 283.58 211.384 283.58C212.093 283.58 212.732 283.739 213.302 284.056C213.871 284.373 214.314 284.817 214.632 285.386C214.958 285.955 215.122 286.599 215.122 287.318C215.122 288.037 214.958 288.681 214.632 289.25C214.314 289.819 213.871 290.267 213.302 290.594C212.732 290.911 212.093 291.07 211.384 291.07ZM211.384 290.188C211.906 290.188 212.373 290.071 212.784 289.838C213.204 289.595 213.53 289.255 213.764 288.816C213.997 288.377 214.114 287.878 214.114 287.318C214.114 286.758 213.997 286.259 213.764 285.82C213.53 285.381 213.204 285.045 212.784 284.812C212.373 284.569 211.906 284.448 211.384 284.448C210.861 284.448 210.39 284.569 209.97 284.812C209.559 285.045 209.232 285.381 208.99 285.82C208.756 286.259 208.64 286.758 208.64 287.318C208.64 287.878 208.756 288.377 208.99 288.816C209.232 289.255 209.559 289.595 209.97 289.838C210.39 290.071 210.861 290.188 211.384 290.188ZM227.14 281.2V281.914L223.038 291H221.946L225.978 282.096H220.938V283.93H219.944V281.2H227.14ZM230.784 285.218C232.203 285.218 233.234 285.475 233.878 285.988C234.532 286.492 234.858 287.201 234.858 288.116C234.858 288.685 234.723 289.194 234.452 289.642C234.191 290.09 233.794 290.445 233.262 290.706C232.73 290.958 232.077 291.084 231.302 291.084C230.602 291.084 229.935 290.972 229.3 290.748C228.675 290.515 228.171 290.207 227.788 289.824L228.278 289.026C228.605 289.362 229.034 289.637 229.566 289.852C230.098 290.057 230.672 290.16 231.288 290.16C232.1 290.16 232.726 289.978 233.164 289.614C233.612 289.25 233.836 288.765 233.836 288.158C233.836 287.486 233.584 286.977 233.08 286.632C232.586 286.287 231.746 286.114 230.56 286.114H228.474L228.978 281.2H234.34V282.096H229.86L229.524 285.218H230.784ZM238.073 286.45C237.411 286.45 236.874 286.207 236.463 285.722C236.062 285.227 235.861 284.583 235.861 283.79C235.861 282.997 236.062 282.357 236.463 281.872C236.874 281.377 237.411 281.13 238.073 281.13C238.727 281.13 239.259 281.373 239.669 281.858C240.08 282.343 240.285 282.987 240.285 283.79C240.285 284.593 240.08 285.237 239.669 285.722C239.259 286.207 238.727 286.45 238.073 286.45ZM244.009 281.2H244.835L238.143 291H237.317L244.009 281.2ZM238.073 285.82C238.531 285.82 238.895 285.643 239.165 285.288C239.445 284.924 239.585 284.425 239.585 283.79C239.585 283.155 239.445 282.661 239.165 282.306C238.895 281.942 238.531 281.76 238.073 281.76C237.607 281.76 237.238 281.942 236.967 282.306C236.697 282.67 236.561 283.165 236.561 283.79C236.561 284.415 236.697 284.91 236.967 285.274C237.238 285.638 237.607 285.82 238.073 285.82ZM244.079 291.07C243.426 291.07 242.894 290.827 242.483 290.342C242.073 289.847 241.867 289.203 241.867 288.41C241.867 287.617 242.073 286.977 242.483 286.492C242.894 285.997 243.426 285.75 244.079 285.75C244.742 285.75 245.274 285.997 245.675 286.492C246.086 286.977 246.291 287.617 246.291 288.41C246.291 289.203 246.086 289.847 245.675 290.342C245.274 290.827 244.742 291.07 244.079 291.07ZM244.079 290.44C244.546 290.44 244.915 290.258 245.185 289.894C245.456 289.53 245.591 289.035 245.591 288.41C245.591 287.785 245.456 287.29 245.185 286.926C244.915 286.562 244.546 286.38 244.079 286.38C243.622 286.38 243.253 286.562 242.973 286.926C242.703 287.281 242.567 287.775 242.567 288.41C242.567 289.045 242.703 289.544 242.973 289.908C243.253 290.263 243.622 290.44 244.079 290.44ZM256.649 287.192C257.648 287.425 258.147 288.027 258.147 288.998C258.147 289.642 257.909 290.137 257.433 290.482C256.957 290.827 256.248 291 255.305 291H251.959V283.636H255.207C256.047 283.636 256.705 283.799 257.181 284.126C257.657 284.453 257.895 284.919 257.895 285.526C257.895 285.927 257.783 286.273 257.559 286.562C257.344 286.842 257.041 287.052 256.649 287.192ZM252.925 286.912H255.137C255.706 286.912 256.14 286.805 256.439 286.59C256.747 286.375 256.901 286.063 256.901 285.652C256.901 285.241 256.747 284.933 256.439 284.728C256.14 284.523 255.706 284.42 255.137 284.42H252.925V286.912ZM255.263 290.216C255.898 290.216 256.374 290.113 256.691 289.908C257.008 289.703 257.167 289.381 257.167 288.942C257.167 288.503 257.022 288.181 256.733 287.976C256.444 287.761 255.986 287.654 255.361 287.654H252.925V290.216H255.263ZM264.271 283.58C264.961 283.58 265.587 283.739 266.147 284.056C266.707 284.364 267.145 284.803 267.463 285.372C267.78 285.941 267.939 286.59 267.939 287.318C267.939 288.055 267.78 288.709 267.463 289.278C267.145 289.847 266.707 290.291 266.147 290.608C265.596 290.916 264.971 291.07 264.271 291.07C263.673 291.07 263.132 290.949 262.647 290.706C262.171 290.454 261.779 290.09 261.471 289.614V293.716H260.477V283.636H261.429V285.092C261.727 284.607 262.119 284.233 262.605 283.972C263.099 283.711 263.655 283.58 264.271 283.58ZM264.201 290.188C264.714 290.188 265.181 290.071 265.601 289.838C266.021 289.595 266.347 289.255 266.581 288.816C266.823 288.377 266.945 287.878 266.945 287.318C266.945 286.758 266.823 286.263 266.581 285.834C266.347 285.395 266.021 285.055 265.601 284.812C265.181 284.569 264.714 284.448 264.201 284.448C263.678 284.448 263.207 284.569 262.787 284.812C262.376 285.055 262.049 285.395 261.807 285.834C261.573 286.263 261.457 286.758 261.457 287.318C261.457 287.878 261.573 288.377 261.807 288.816C262.049 289.255 262.376 289.595 262.787 289.838C263.207 290.071 263.678 290.188 264.201 290.188ZM276.514 287.626H270.354C270.41 288.391 270.704 289.012 271.236 289.488C271.768 289.955 272.44 290.188 273.252 290.188C273.709 290.188 274.129 290.109 274.512 289.95C274.895 289.782 275.226 289.539 275.506 289.222L276.066 289.866C275.739 290.258 275.329 290.557 274.834 290.762C274.349 290.967 273.812 291.07 273.224 291.07C272.468 291.07 271.796 290.911 271.208 290.594C270.629 290.267 270.177 289.819 269.85 289.25C269.523 288.681 269.36 288.037 269.36 287.318C269.36 286.599 269.514 285.955 269.822 285.386C270.139 284.817 270.569 284.373 271.11 284.056C271.661 283.739 272.277 283.58 272.958 283.58C273.639 283.58 274.251 283.739 274.792 284.056C275.333 284.373 275.758 284.817 276.066 285.386C276.374 285.946 276.528 286.59 276.528 287.318L276.514 287.626ZM272.958 284.434C272.249 284.434 271.651 284.663 271.166 285.12C270.69 285.568 270.419 286.156 270.354 286.884H275.576C275.511 286.156 275.235 285.568 274.75 285.12C274.274 284.663 273.677 284.434 272.958 284.434ZM286.96 283.636V291H286.05V285.176L283.068 290.104H282.62L279.638 285.162V291H278.728V283.636H279.736L282.858 288.942L286.036 283.636H286.96ZM296.229 287.626H290.069C290.125 288.391 290.419 289.012 290.951 289.488C291.483 289.955 292.155 290.188 292.967 290.188C293.424 290.188 293.844 290.109 294.227 289.95C294.61 289.782 294.941 289.539 295.221 289.222L295.781 289.866C295.454 290.258 295.044 290.557 294.549 290.762C294.064 290.967 293.527 291.07 292.939 291.07C292.183 291.07 291.511 290.911 290.923 290.594C290.344 290.267 289.892 289.819 289.565 289.25C289.238 288.681 289.075 288.037 289.075 287.318C289.075 286.599 289.229 285.955 289.537 285.386C289.854 284.817 290.284 284.373 290.825 284.056C291.376 283.739 291.992 283.58 292.673 283.58C293.354 283.58 293.966 283.739 294.507 284.056C295.048 284.373 295.473 284.817 295.781 285.386C296.089 285.946 296.243 286.59 296.243 287.318L296.229 287.626ZM292.673 284.434C291.964 284.434 291.366 284.663 290.881 285.12C290.405 285.568 290.134 286.156 290.069 286.884H295.291C295.226 286.156 294.95 285.568 294.465 285.12C293.989 284.663 293.392 284.434 292.673 284.434ZM298.443 283.636H299.437V286.898H304.071V283.636H305.065V291H304.071V287.752H299.437V291H298.443V283.636ZM307.891 283.636H308.885V289.488L313.799 283.636H314.681V291H313.687V285.148L308.787 291H307.891V283.636ZM321.193 283.636H322.187V286.898H326.821V283.636H327.815V291H326.821V287.752H322.187V291H321.193V283.636ZM333.175 283.58C334.136 283.58 334.873 283.823 335.387 284.308C335.9 284.784 336.157 285.493 336.157 286.436V291H335.205V289.852C334.981 290.235 334.649 290.533 334.211 290.748C333.781 290.963 333.268 291.07 332.671 291.07C331.849 291.07 331.196 290.874 330.711 290.482C330.225 290.09 329.983 289.572 329.983 288.928C329.983 288.303 330.207 287.799 330.655 287.416C331.112 287.033 331.835 286.842 332.825 286.842H335.163V286.394C335.163 285.759 334.985 285.279 334.631 284.952C334.276 284.616 333.758 284.448 333.077 284.448C332.61 284.448 332.162 284.527 331.733 284.686C331.303 284.835 330.935 285.045 330.627 285.316L330.179 284.574C330.552 284.257 331 284.014 331.523 283.846C332.045 283.669 332.596 283.58 333.175 283.58ZM332.825 290.286C333.385 290.286 333.865 290.16 334.267 289.908C334.668 289.647 334.967 289.273 335.163 288.788V287.584H332.853C331.593 287.584 330.963 288.023 330.963 288.9C330.963 289.329 331.126 289.67 331.453 289.922C331.779 290.165 332.237 290.286 332.825 290.286ZM346.261 283.58C346.951 283.58 347.577 283.739 348.137 284.056C348.697 284.364 349.135 284.803 349.453 285.372C349.77 285.941 349.929 286.59 349.929 287.318C349.929 288.055 349.77 288.709 349.453 289.278C349.135 289.847 348.697 290.291 348.137 290.608C347.586 290.916 346.961 291.07 346.261 291.07C345.663 291.07 345.122 290.949 344.637 290.706C344.161 290.454 343.769 290.09 343.461 289.614V293.716H342.467V283.636H343.419V285.092C343.717 284.607 344.109 284.233 344.595 283.972C345.089 283.711 345.645 283.58 346.261 283.58ZM346.191 290.188C346.704 290.188 347.171 290.071 347.591 289.838C348.011 289.595 348.337 289.255 348.571 288.816C348.813 288.377 348.935 287.878 348.935 287.318C348.935 286.758 348.813 286.263 348.571 285.834C348.337 285.395 348.011 285.055 347.591 284.812C347.171 284.569 346.704 284.448 346.191 284.448C345.668 284.448 345.197 284.569 344.777 284.812C344.366 285.055 344.039 285.395 343.797 285.834C343.563 286.263 343.447 286.758 343.447 287.318C343.447 287.878 343.563 288.377 343.797 288.816C344.039 289.255 344.366 289.595 344.777 289.838C345.197 290.071 345.668 290.188 346.191 290.188ZM358.504 287.626H352.344C352.4 288.391 352.694 289.012 353.226 289.488C353.758 289.955 354.43 290.188 355.242 290.188C355.7 290.188 356.12 290.109 356.502 289.95C356.885 289.782 357.216 289.539 357.496 289.222L358.056 289.866C357.73 290.258 357.319 290.557 356.824 290.762C356.339 290.967 355.802 291.07 355.214 291.07C354.458 291.07 353.786 290.911 353.198 290.594C352.62 290.267 352.167 289.819 351.84 289.25C351.514 288.681 351.35 288.037 351.35 287.318C351.35 286.599 351.504 285.955 351.812 285.386C352.13 284.817 352.559 284.373 353.1 284.056C353.651 283.739 354.267 283.58 354.948 283.58C355.63 283.58 356.241 283.739 356.782 284.056C357.324 284.373 357.748 284.817 358.056 285.386C358.364 285.946 358.518 286.59 358.518 287.318L358.504 287.626ZM354.948 284.434C354.239 284.434 353.642 284.663 353.156 285.12C352.68 285.568 352.41 286.156 352.344 286.884H357.566C357.501 286.156 357.226 285.568 356.74 285.12C356.264 284.663 355.667 284.434 354.948 284.434ZM370.883 283.636V291H360.719V283.636H361.713V290.132H365.325V283.636H366.319V290.132H369.889V283.636H370.883ZM380.161 287.626H374.001C374.057 288.391 374.351 289.012 374.883 289.488C375.415 289.955 376.087 290.188 376.899 290.188C377.356 290.188 377.776 290.109 378.159 289.95C378.541 289.782 378.873 289.539 379.153 289.222L379.713 289.866C379.386 290.258 378.975 290.557 378.481 290.762C377.995 290.967 377.459 291.07 376.871 291.07C376.115 291.07 375.443 290.911 374.855 290.594C374.276 290.267 373.823 289.819 373.497 289.25C373.17 288.681 373.007 288.037 373.007 287.318C373.007 286.599 373.161 285.955 373.469 285.386C373.786 284.817 374.215 284.373 374.757 284.056C375.307 283.739 375.923 283.58 376.605 283.58C377.286 283.58 377.897 283.739 378.439 284.056C378.98 284.373 379.405 284.817 379.713 285.386C380.021 285.946 380.175 286.59 380.175 287.318L380.161 287.626ZM376.605 284.434C375.895 284.434 375.298 284.663 374.813 285.12C374.337 285.568 374.066 286.156 374.001 286.884H379.223C379.157 286.156 378.882 285.568 378.397 285.12C377.921 284.663 377.323 284.434 376.605 284.434ZM382.375 283.636H383.369V286.898H388.003V283.636H388.997V291H388.003V287.752H383.369V291H382.375V283.636ZM391.822 283.636H392.816V289.488L397.73 283.636H398.612V291H397.618V285.148L392.718 291H391.822V283.636ZM401.461 283.636H402.455V289.488L407.369 283.636H408.251V291H407.257V285.148L402.357 291H401.461V283.636ZM423.654 287.304C423.654 288.452 423.276 289.353 422.52 290.006C421.764 290.659 420.695 291.014 419.314 291.07V293.716H418.348V291.084C416.976 291.028 415.912 290.673 415.156 290.02C414.409 289.357 414.036 288.452 414.036 287.304C414.036 286.165 414.409 285.274 415.156 284.63C415.912 283.986 416.976 283.636 418.348 283.58V280.612H419.314V283.58C420.695 283.645 421.764 284 422.52 284.644C423.276 285.288 423.654 286.175 423.654 287.304ZM415.016 287.304C415.016 288.181 415.296 288.867 415.856 289.362C416.425 289.857 417.256 290.137 418.348 290.202V284.462C417.265 284.518 416.439 284.793 415.87 285.288C415.3 285.773 415.016 286.445 415.016 287.304ZM419.314 290.202C420.406 290.146 421.236 289.871 421.806 289.376C422.384 288.881 422.674 288.191 422.674 287.304C422.674 286.436 422.384 285.759 421.806 285.274C421.236 284.789 420.406 284.518 419.314 284.462V290.202ZM429.55 283.58C430.24 283.58 430.866 283.739 431.426 284.056C431.986 284.364 432.424 284.803 432.742 285.372C433.059 285.941 433.218 286.59 433.218 287.318C433.218 288.055 433.059 288.709 432.742 289.278C432.424 289.847 431.986 290.291 431.426 290.608C430.875 290.916 430.25 291.07 429.55 291.07C428.952 291.07 428.411 290.949 427.926 290.706C427.45 290.454 427.058 290.09 426.75 289.614V293.716H425.756V283.636H426.708V285.092C427.006 284.607 427.398 284.233 427.884 283.972C428.378 283.711 428.934 283.58 429.55 283.58ZM429.48 290.188C429.993 290.188 430.46 290.071 430.88 289.838C431.3 289.595 431.626 289.255 431.86 288.816C432.102 288.377 432.224 287.878 432.224 287.318C432.224 286.758 432.102 286.263 431.86 285.834C431.626 285.395 431.3 285.055 430.88 284.812C430.46 284.569 429.993 284.448 429.48 284.448C428.957 284.448 428.486 284.569 428.066 284.812C427.655 285.055 427.328 285.395 427.086 285.834C426.852 286.263 426.736 286.758 426.736 287.318C426.736 287.878 426.852 288.377 427.086 288.816C427.328 289.255 427.655 289.595 428.066 289.838C428.486 290.071 428.957 290.188 429.48 290.188ZM435.353 283.636H436.347V289.488L441.261 283.636H442.143V291H441.149V285.148L436.249 291H435.353V283.636ZM451.012 283.636V291H450.018V284.518H446.49L446.392 286.338C446.317 287.869 446.14 289.045 445.86 289.866C445.58 290.687 445.081 291.098 444.362 291.098C444.166 291.098 443.928 291.061 443.648 290.986L443.718 290.132C443.886 290.169 444.003 290.188 444.068 290.188C444.451 290.188 444.74 290.011 444.936 289.656C445.132 289.301 445.263 288.863 445.328 288.34C445.393 287.817 445.449 287.127 445.496 286.268L445.622 283.636H451.012ZM456.372 283.58C457.333 283.58 458.07 283.823 458.584 284.308C459.097 284.784 459.354 285.493 459.354 286.436V291H458.402V289.852C458.178 290.235 457.846 290.533 457.408 290.748C456.978 290.963 456.465 291.07 455.868 291.07C455.046 291.07 454.393 290.874 453.908 290.482C453.422 290.09 453.18 289.572 453.18 288.928C453.18 288.303 453.404 287.799 453.852 287.416C454.309 287.033 455.032 286.842 456.022 286.842H458.36V286.394C458.36 285.759 458.182 285.279 457.828 284.952C457.473 284.616 456.955 284.448 456.274 284.448C455.807 284.448 455.359 284.527 454.93 284.686C454.5 284.835 454.132 285.045 453.824 285.316L453.376 284.574C453.749 284.257 454.197 284.014 454.72 283.846C455.242 283.669 455.793 283.58 456.372 283.58ZM456.022 290.286C456.582 290.286 457.062 290.16 457.464 289.908C457.865 289.647 458.164 289.273 458.36 288.788V287.584H456.05C454.79 287.584 454.16 288.023 454.16 288.9C454.16 289.329 454.323 289.67 454.65 289.922C454.976 290.165 455.434 290.286 456.022 290.286ZM462 283.636H462.994V286.898H467.628V283.636H468.622V291H467.628V287.752H462.994V291H462V283.636ZM474.527 291.07C473.799 291.07 473.146 290.911 472.567 290.594C471.998 290.277 471.55 289.833 471.223 289.264C470.897 288.685 470.733 288.037 470.733 287.318C470.733 286.599 470.897 285.955 471.223 285.386C471.55 284.817 471.998 284.373 472.567 284.056C473.146 283.739 473.799 283.58 474.527 283.58C475.162 283.58 475.727 283.706 476.221 283.958C476.725 284.201 477.122 284.56 477.411 285.036L476.669 285.54C476.427 285.176 476.119 284.905 475.745 284.728C475.372 284.541 474.966 284.448 474.527 284.448C473.995 284.448 473.515 284.569 473.085 284.812C472.665 285.045 472.334 285.381 472.091 285.82C471.858 286.259 471.741 286.758 471.741 287.318C471.741 287.887 471.858 288.391 472.091 288.83C472.334 289.259 472.665 289.595 473.085 289.838C473.515 290.071 473.995 290.188 474.527 290.188C474.966 290.188 475.372 290.099 475.745 289.922C476.119 289.745 476.427 289.474 476.669 289.11L477.411 289.614C477.122 290.09 476.725 290.454 476.221 290.706C475.717 290.949 475.153 291.07 474.527 291.07ZM486.584 287.164C487.107 287.285 487.508 287.495 487.788 287.794C488.077 288.093 488.222 288.457 488.222 288.886C488.222 289.315 488.073 289.698 487.774 290.034C487.485 290.37 487.088 290.631 486.584 290.818C486.08 290.995 485.525 291.084 484.918 291.084C484.386 291.084 483.863 291.009 483.35 290.86C482.837 290.701 482.389 290.473 482.006 290.174L482.342 289.432C482.678 289.684 483.07 289.88 483.518 290.02C483.966 290.16 484.419 290.23 484.876 290.23C485.557 290.23 486.113 290.104 486.542 289.852C486.981 289.591 487.2 289.241 487.2 288.802C487.2 288.41 487.023 288.107 486.668 287.892C486.313 287.668 485.828 287.556 485.212 287.556H483.952V286.828H485.156C485.707 286.828 486.15 286.725 486.486 286.52C486.822 286.305 486.99 286.021 486.99 285.666C486.99 285.274 486.799 284.966 486.416 284.742C486.043 284.518 485.553 284.406 484.946 284.406C484.153 284.406 483.369 284.607 482.594 285.008L482.314 284.238C483.191 283.781 484.101 283.552 485.044 283.552C485.604 283.552 486.108 283.636 486.556 283.804C487.013 283.963 487.368 284.191 487.62 284.49C487.881 284.789 488.012 285.134 488.012 285.526C488.012 285.899 487.881 286.231 487.62 286.52C487.368 286.809 487.023 287.024 486.584 287.164ZM493.012 283.58C493.974 283.58 494.711 283.823 495.224 284.308C495.738 284.784 495.994 285.493 495.994 286.436V291H495.042V289.852C494.818 290.235 494.487 290.533 494.048 290.748C493.619 290.963 493.106 291.07 492.508 291.07C491.687 291.07 491.034 290.874 490.548 290.482C490.063 290.09 489.82 289.572 489.82 288.928C489.82 288.303 490.044 287.799 490.492 287.416C490.95 287.033 491.673 286.842 492.662 286.842H495V286.394C495 285.759 494.823 285.279 494.468 284.952C494.114 284.616 493.596 284.448 492.914 284.448C492.448 284.448 492 284.527 491.57 284.686C491.141 284.835 490.772 285.045 490.464 285.316L490.016 284.574C490.39 284.257 490.838 284.014 491.36 283.846C491.883 283.669 492.434 283.58 493.012 283.58ZM492.662 290.286C493.222 290.286 493.703 290.16 494.104 289.908C494.506 289.647 494.804 289.273 495 288.788V287.584H492.69C491.43 287.584 490.8 288.023 490.8 288.9C490.8 289.329 490.964 289.67 491.29 289.922C491.617 290.165 492.074 290.286 492.662 290.286ZM505.823 290.132V292.778H504.885V291H498.291V292.778H497.353V290.132H497.773C498.267 290.104 498.603 289.74 498.781 289.04C498.958 288.34 499.079 287.36 499.145 286.1L499.243 283.636H504.675V290.132H505.823ZM500.055 286.156C500.008 287.201 499.919 288.065 499.789 288.746C499.658 289.418 499.425 289.88 499.089 290.132H503.681V284.518H500.139L500.055 286.156ZM510.294 283.58C511.255 283.58 511.992 283.823 512.506 284.308C513.019 284.784 513.276 285.493 513.276 286.436V291H512.324V289.852C512.1 290.235 511.768 290.533 511.33 290.748C510.9 290.963 510.387 291.07 509.79 291.07C508.968 291.07 508.315 290.874 507.83 290.482C507.344 290.09 507.102 289.572 507.102 288.928C507.102 288.303 507.326 287.799 507.774 287.416C508.231 287.033 508.954 286.842 509.944 286.842H512.282V286.394C512.282 285.759 512.104 285.279 511.75 284.952C511.395 284.616 510.877 284.448 510.196 284.448C509.729 284.448 509.281 284.527 508.852 284.686C508.422 284.835 508.054 285.045 507.746 285.316L507.298 284.574C507.671 284.257 508.119 284.014 508.642 283.846C509.164 283.669 509.715 283.58 510.294 283.58ZM509.944 290.286C510.504 290.286 510.984 290.16 511.386 289.908C511.787 289.647 512.086 289.273 512.282 288.788V287.584H509.972C508.712 287.584 508.082 288.023 508.082 288.9C508.082 289.329 508.245 289.67 508.572 289.922C508.898 290.165 509.356 290.286 509.944 290.286ZM521.48 283.636V291H520.486V287.934C519.636 288.307 518.801 288.494 517.98 288.494C517.093 288.494 516.402 288.293 515.908 287.892C515.413 287.481 515.166 286.87 515.166 286.058V283.636H516.16V286.002C516.16 286.553 516.337 286.973 516.692 287.262C517.046 287.542 517.536 287.682 518.162 287.682C518.852 287.682 519.627 287.5 520.486 287.136V283.636H521.48Z" fill="#222222"/>
<defs>
<filter id="filter0_d_0_1" x="0" y="0" width="565" height="122" filterUnits="userSpaceOnUse" color-interpolation-filters="sRGB">
<feFlood flood-opacity="0" result="BackgroundImageFix"/>
<feColorMatrix in="SourceAlpha" type="matrix" values="0 0 0 0 0 0 0 0 0 0 0 0 0 0 0 0 0 0 127 0" result="hardAlpha"/>
<feOffset dy="16"/>
<feGaussianBlur stdDeviation="8"/>
<feColorMatrix type="matrix" values="0 0 0 0 0 0 0 0 0 0 0 0 0 0 0 0 0 0 0.04 0"/>
<feBlend mode="normal" in2="BackgroundImageFix" result="effect1_dropShadow_0_1"/>
<feBlend mode="normal" in="SourceGraphic" in2="effect1_dropShadow_0_1" result="shape"/>
</filter>
<filter id="filter1_d_0_1" x="0" y="120" width="565" height="122" filterUnits="userSpaceOnUse" color-interpolation-filters="sRGB">
<feFlood flood-opacity="0" result="BackgroundImageFix"/>
<feColorMatrix in="SourceAlpha" type="matrix" values="0 0 0 0 0 0 0 0 0 0 0 0 0 0 0 0 0 0 127 0" result="hardAlpha"/>
<feOffset dy="16"/>
<feGaussianBlur stdDeviation="8"/>
<feColorMatrix type="matrix" values="0 0 0 0 0 0 0 0 0 0 0 0 0 0 0 0 0 0 0.04 0"/>
<feBlend mode="normal" in2="BackgroundImageFix" result="effect1_dropShadow_0_1"/>
<feBlend mode="normal" in="SourceGraphic" in2="effect1_dropShadow_0_1" result="shape"/>
</filter>
<filter id="filter2_d_0_1" x="0" y="240" width="565" height="122" filterUnits="userSpaceOnUse" color-interpolation-filters="sRGB">
<feFlood flood-opacity="0" result="BackgroundImageFix"/>
<feColorMatrix in="SourceAlpha" type="matrix" values="0 0 0 0 0 0 0 0 0 0 0 0 0 0 0 0 0 0 127 0" result="hardAlpha"/>
<feOffset dy="16"/>
<feGaussianBlur stdDeviation="8"/>
<feColorMatrix type="matrix" values="0 0 0 0 0 0 0 0 0 0 0 0 0 0 0 0 0 0 0.04 0"/>
<feBlend mode="normal" in2="BackgroundImageFix" result="effect1_dropShadow_0_1"/>
<feBlend mode="normal" in="SourceGraphic" in2="effect1_dropShadow_0_1" result="shape"/>
</filter>
<clipPath id="clip0_0_1">
<rect width="50" height="50" fill="white" transform="translate(36 20)"/>
</clipPath>
<clipPath id="clip1_0_1">
<rect width="50" height="50" fill="white" transform="translate(36 140)"/>
</clipPath>
<clipPath id="clip2_0_1">
<rect width="50" height="50" fill="white" transform="translate(36 260)"/>
</clipPath>
</defs>
</svg>
