<svg width="20" height="20" viewBox="0 0 20 20" fill="none" xmlns="http://www.w3.org/2000/svg">
<path fill-rule="evenodd" clip-rule="evenodd" d="M5.50806 2.4655L4.3562 5H2.5C1.67163 5 1 5.67157 1 6.5V8.38196L1.50293 8.63344C6.85181 11.308 13.1479 11.308 18.4971 8.63344L19 8.38196V6.5C19 5.67157 18.3284 5 17.5 5H15.6438L14.4919 2.4655C14.0862 1.57301 13.1963 1 12.2161 1H7.78394C6.80371 1 5.91382 1.57301 5.50806 2.4655ZM7.78394 3C7.58789 3 7.40991 3.11461 7.32886 3.29311L6.55298 5H13.447L12.6711 3.29311C12.5901 3.11461 12.4121 3 12.2161 3H7.78394Z" fill="#656084"/>
<path d="M19 10.6129C16.4612 11.8174 13.7405 12.485 11 12.6155V14C11 14.5523 10.5522 15 10 15C9.44775 15 9 14.5523 9 14V12.6155C6.25952 12.485 3.53906 11.8175 1 10.613V17.5C1 18.3284 1.67163 19 2.5 19H17.5C18.3284 19 19 18.3284 19 17.5V10.6129Z" fill="#656084"/>
</svg>
